<svg xmlns="http://www.w3.org/2000/svg" width="36.949" height="26.885" viewBox="0 0 36.949 26.885"><path d="M427.906,393.722h-7.927v-8.011h2.62a.819.819,0,0,0,.664-1.3l-5.1-7.052a.812.812,0,0,0-1.321,0l-5.1,7.052a.817.817,0,0,0,.664,1.3h2.62v8.011h-8.879c-3.963-.219-7.119-3.926-7.119-7.943a7.519,7.519,0,0,1,3.729-6.492,5.047,5.047,0,0,1-.309-1.76,5.113,5.113,0,0,1,5.119-5.119,5.027,5.027,0,0,1,1.751.31A10.248,10.248,0,0,1,428.8,376.1a8.915,8.915,0,0,1-.891,17.622Zm0,0" transform="translate(-399.036 -366.837)" fill="#000"/></svg>
