<?xml version="1.0" standalone="no"?>
<!DOCTYPE svg PUBLIC "-//W3C//DTD SVG 1.1//EN" "http://www.w3.org/Graphics/SVG/1.1/DTD/svg11.dtd" >
<svg xmlns="http://www.w3.org/2000/svg" xmlns:xlink="http://www.w3.org/1999/xlink" version="1.1">
<metadata></metadata>
<defs>
<font id="tt_rabbitshyper" horiz-adv-x="964" >
<font-face units-per-em="2048" ascent="1638" descent="-410" />
<missing-glyph horiz-adv-x="512" />
<glyph horiz-adv-x="0" />
<glyph horiz-adv-x="0" />
<glyph horiz-adv-x="682" />
<glyph unicode="&#xd;" horiz-adv-x="0" />
<glyph unicode=" "  horiz-adv-x="512" />
<glyph unicode="&#x09;" horiz-adv-x="512" />
<glyph unicode="&#xa0;" horiz-adv-x="512" />
<glyph unicode="!" horiz-adv-x="518" d="M61 88q0 62 35.5 110t102.5 48q44 0 79 -36t35 -83q0 -13 -4 -33q-13 -8 -63.5 -54t-89.5 -58q-23 8 -37 15t-29 19t-22 30t-7 42zM131 526q0 20 4 66q17 197 65 384t134 449h18q34 0 59.5 -36t35.5 -80.5t10 -85.5q0 -97 -17 -164q-82 -331 -137 -699q-12 -92 -57 -92 q-32 0 -56 27t-36 69t-17.5 82.5t-5.5 79.5z" />
<glyph unicode="&#x22;" horiz-adv-x="581" d="M164 1077q0 55 11 133.5t38 151t63 72.5q31 0 57.5 -49.5t26.5 -92.5q0 -27 -4 -41q-17 -56 -44 -163t-31 -123q-25 -7 -35 -7q-40 0 -61 37.5t-21 81.5zM381 1038q0 84 45 287q4 22 22 35.5t41 13.5q25 0 43 -11.5t27.5 -28t15 -42.5t6.5 -46t1 -48q0 -70 -37 -184.5 t-78 -114.5q-34 0 -60 49t-26 90z" />
<glyph unicode="#" horiz-adv-x="1333" d="M-41 473q0 29 25.5 57.5t60 50t88 44.5t90 36t86.5 29q62 19 96.5 54t51.5 96q21 73 67 207t62 184q15 49 57 49q35 0 59.5 -33.5t24.5 -68.5q0 -49 -33 -183q-8 -34 -18.5 -98t-11.5 -72q48 -10 63 -10q36 0 75.5 74.5t57.5 148.5q29 114 98 164q45 -8 70 -58t25 -91 q0 -11 -6.5 -37t-19.5 -71.5l-17 -59.5q32 -12 83.5 -24.5t80 -21t61 -33t51.5 -63.5q10 -20 10 -45q0 -98 -79 -98q-22 0 -59.5 8t-55.5 8q-22 0 -59.5 -4.5t-51.5 -5.5q-21 -1 -30.5 -14t-18.5 -51q23 0 84 2.5t95.5 1.5t81.5 -7t79 -24.5t51 -48.5q-18 -36 -44.5 -60 t-61 -37t-64.5 -20t-75 -15.5t-72 -15.5q-105 -29 -141 -51q-61 -37 -62 -94v-82q0 -46 -9 -69t-40 -23q-13 0 -24.5 4t-21.5 14t-17.5 19t-15 25.5l-12.5 27.5t-11 32t-8.5 30.5t-8 31t-6.5 27.5q-110 -28 -158 -59l7 -39q6 -39 6 -60q0 -32 -19 -51.5t-41 -19.5t-45.5 19 t-37 37.5t-33.5 49.5q-3 5 -5 8q-10 -1 -58.5 -7.5t-72.5 -6.5q-42 0 -70 29.5t-28 60.5q0 40 25.5 68t61.5 45t72 33.5t61.5 43.5t25.5 66q-7 0 -22.5 1t-22.5 1q-36 0 -121 -35t-107 -35q-34 0 -66 37t-32 78zM584 461q20 -4 26 -4q57 0 62 41q0 7 -10 12.5t-19 5.5 q-22 0 -35.5 -11.5t-23.5 -43.5z" />
<glyph unicode="$" horiz-adv-x="819" d="M0 211q0 48 59 125q13 -8 38 -24.5t34 -22.5q9 12 17 29.5t12 32t10.5 38t9.5 35.5q7 25 40 152t56 192q13 37 13 66q0 23 -7.5 68.5t-7.5 66.5q0 181 156 331q3 7 8 9q34 29 63 63t48.5 63.5t41 74t33.5 74t34 85.5t36 88q12 36 51 39q33 0 53.5 -31.5t20.5 -66.5 q0 -50 -39 -163t-39 -153q0 -12 10.5 -36.5t10.5 -32.5q-2 -10 -2 -29q0 -50 29.5 -145t29.5 -142q0 -77 -69 -123q-21 5 -36 11.5t-25.5 18t-17 20t-11.5 28.5t-7 31.5t-6.5 40.5t-7.5 45q-16 4 -21 4q-20 0 -61 -118t-41 -150q0 -12 2.5 -24t8 -25t9.5 -21t13 -23.5 t12 -21.5q78 -138 78 -282q0 -192 -83.5 -280t-274.5 -112q-62 -92 -62 -194q0 -65 25 -174q-35 -15 -45 -15q-43 0 -71 46t-37 99t-9 107q0 17 4 52t4 51q0 83 -55 143q-35 38 -35 80zM317 274q70 13 111 66.5t41 108.5q0 22 -0.5 32.5t-4 31t-13 30.5t-25.5 10 q-23 -23 -41 -66t-39 -116.5t-29 -96.5z" />
<glyph unicode="%" horiz-adv-x="913" d="M41 18q0 84 37 172q54 128 136 276t131 226t176 271t155 235q7 10 26 47.5t36.5 56.5t39.5 19q39 0 66.5 -38t27.5 -75q0 -70 -67 -180q-58 -99 -169.5 -275t-148.5 -237q-51 -74 -131.5 -225.5t-115.5 -208.5q-14 -24 -20.5 -35t-13 -31.5t-5.5 -38.5v-20 q1 -15 -6.5 -31t-14 -24t-24.5 -27q-78 31 -96.5 53.5t-18.5 89.5zM88 965q0 77 78 127q18 -27 57 -82q37 14 49.5 23.5t12.5 25.5t-20 34.5t-40 41.5t-20 49q27 63 106 63q61 0 107.5 -64t46.5 -130q0 -79 -76.5 -159.5t-161.5 -80.5q-53 0 -96 40t-43 112zM446 188 q0 72 45.5 124t124.5 71q1 2 3 10.5t3 11t3.5 10t4 10.5t5 9t7 8.5t8 6.5t10 5.5t12 3t14.5 1.5q52 0 93.5 -59t41.5 -126q0 -90 -78.5 -167.5t-164.5 -77.5q-55 0 -93.5 48t-38.5 111z" />
<glyph unicode="&#x26;" horiz-adv-x="942" d="M0 369q0 251 332 583q-10 255 -10 271q0 101 45.5 147t150.5 76q27 8 60 8q108 0 176.5 -83.5t68.5 -203.5q0 -49 -14 -95.5t-33 -82t-54.5 -78.5t-63 -71t-74.5 -73q-17 -16 -25 -24q7 -78 66 -184q27 35 62.5 105t62 116.5t43.5 46.5q30 0 63 -30q4 -58 4 -82 q0 -209 -94 -414q-16 -32 -16 -59q0 -25 24.5 -77t24.5 -85q0 -28 -18 -49t-52 -21q-18 0 -34 10.5t-24 21t-24 35.5t-22 34q-33 -14 -62.5 -38.5t-47 -42.5t-54.5 -32t-90 -14q-91 0 -176 50.5t-140 140.5t-55 194zM223 272q59 -18 82 -18q57 0 112.5 43t90.5 100 q-7 33 -23.5 70t-26 55t-36.5 64q-165 -89 -199 -314zM522 1112q28 28 31.5 33.5t9.5 28.5q-4 -1 -16 -3t-14 -5t-6 -15.5t-5 -38.5z" />
<glyph unicode="'" horiz-adv-x="360" d="M164 1077q0 55 11 133.5t38 151t63 72.5q31 0 57.5 -49.5t26.5 -92.5q0 -27 -4 -41q-17 -56 -44 -163t-31 -123q-25 -7 -35 -7q-40 0 -61 37.5t-21 81.5z" />
<glyph unicode="(" horiz-adv-x="661" d="M41 170v16q38 255 152 500t292 512q28 43 68 43q39 0 65 -32t35 -69t9 -73q0 -82 -54 -158q-113 -163 -195 -355t-165 -443q-4 -16 -4 -27q0 -13 4 -39t4 -41q0 -28 -16.5 -45.5t-36.5 -17.5t-39 16q-119 94 -119 213z" />
<glyph unicode=")" horiz-adv-x="583" d="M-205 -33q117 92 191 172.5t129 188.5q168 336 168 532q0 105 -37 191q-19 48 -19 73q0 70 76 70q19 0 31.5 -10.5t32.5 -40.5q94 -141 94 -348q0 -249 -92 -476.5t-256 -379.5q-92 -89 -181 -91q-31 0 -77 17q-8 17 -60 102z" />
<glyph unicode="*" horiz-adv-x="778" d="M164 1014q0 31 15.5 43t51.5 12h35q50 0 82 21q-31 122 -31 163q0 37 17 75t45 38q11 0 24.5 -8t33.5 -25t26 -22l28 42t38 52t32 25q3 -1 15.5 -6t16 -7t13.5 -8t13.5 -11.5t8.5 -14.5t7 -21t2 -27q0 -26 -23 -116q13 2 24.5 5t23 8.5t19 9t19 12.5t16 12.5t17.5 14.5 t15 13q15 -10 21.5 -18t8 -12t0 -15t-1.5 -16q0 -41 -23 -83.5t-50.5 -72t-50.5 -66.5t-23 -69q0 -22 -19 -35.5t-43 -13.5q-15 0 -44 5.5t-40 6.5l-10 -20t-11.5 -22.5t-12 -19.5t-15 -18.5t-16.5 -10.5t-21 -5q-27 0 -41 22q-21 29 -57 49.5t-64 30t-49.5 35t-21.5 68.5z " />
<glyph unicode="+" horiz-adv-x="976" d="M0 565q0 26 9.5 44t29 28.5t38.5 16t48 12.5q7 1 10 2q121 27 268 53q61 11 93 65q4 7 190 314q13 24 20 35.5t22.5 25t31.5 13.5q38 0 59 -50t21 -108q0 -34 -9.5 -67t-20 -53.5t-34.5 -62t-37 -65.5q110 -27 136 -40q57 -27 61 -90v-11q0 -32 -17 -62t-45 -30 q-5 0 -14.5 3t-13.5 3q-18 0 -48 -16t-34 -17q-24 -10 -53.5 -18.5t-65.5 -17.5t-57 -15q-20 -40 -67.5 -146t-87 -181t-87.5 -140q-81 30 -98 43q-33 24 -33 80q0 78 16.5 138t59.5 159q-35 18 -76 18q-10 0 -30.5 -2t-30.5 -2q-56 0 -105 44t-49 97z" />
<glyph unicode="," horiz-adv-x="405" d="M-41 -211q0 22 17 45.5t37.5 40.5t37.5 44t17 56q0 19 -18.5 67t-18.5 71q0 52 39 102.5t94 50.5q21 0 38 -6t28.5 -20.5t19 -26.5t13.5 -36t8.5 -35t6.5 -38.5t5 -33.5q-6 -55 -22 -113t-42.5 -115.5t-69 -94t-92.5 -36.5q-41 0 -69.5 21t-28.5 57z" />
<glyph unicode="-" horiz-adv-x="845" d="M0 586q0 54 32.5 83t82.5 29q9 0 27.5 -1t27.5 -1h29h45q46 0 92 9q132 32 332 32q48 0 92.5 -25t44.5 -71q0 -25 -12.5 -43.5t-36.5 -28t-43 -14t-47 -8.5q-106 -13 -471 -55v2q-10 0 -32 -2.5t-34 -2.5q-22 0 -36 1t-33.5 6t-31 15t-20 29t-8.5 46z" />
<glyph unicode="." horiz-adv-x="362" d="M-41 102q0 66 47 115t111 49q53 0 88 -44t35 -97q0 -59 -45 -108.5t-105 -49.5q-45 0 -119 47q-1 9 -6.5 40.5t-5.5 47.5z" />
<glyph unicode="/" horiz-adv-x="733" d="M0 152q33 134 45 170q55 163 186 354q69 100 202.5 285t191.5 268q13 19 19.5 27t20 16t29.5 8q36 0 58 -34t22 -72q0 -49 -29 -78q-58 -71 -114 -154.5t-122 -193t-101 -162.5q-179 -276 -256 -539q-15 -49 -64 -49q-24 0 -40.5 13t-25.5 38t-13.5 47.5t-8.5 55.5z" />
<glyph unicode="0" horiz-adv-x="937" d="M41 293q0 223 107.5 481.5t265.5 366.5q39 24 57 24q13 0 25 -6t19.5 -12.5t24.5 -25t29 -29.5q6 4 22 16t22 16t20 14t21 14t19 11t20 10t18.5 6.5t20 5t18.5 1.5q69 0 128.5 -91.5t59.5 -183.5q0 -181 -115 -381q-8 -13 -46 -89.5t-68 -112.5q-43 -52 -78.5 -91 t-87.5 -85.5t-100 -76t-108.5 -50t-121.5 -19.5q-45 0 -80.5 32t-54.5 80t-28 93.5t-9 81.5zM219 250q0 -6 1 -21t1 -24q82 25 155 78t127.5 116.5t104 147t83 159t65.5 164.5q0 2 1 5.5t1 5.5q0 5 -1 12t-2.5 15.5t-2.5 13.5q-85 -29 -105 -29q-19 0 -37 9t-51 34 q-84 -76 -137 -170t-107 -229q-3 -9 -9.5 -36t-14.5 -38q-26 -36 -49 -107t-23 -106z" />
<glyph unicode="1" horiz-adv-x="923" d="M0 766q0 55 139 137q52 30 149 82.5t174.5 97t141.5 88.5q77 53 98 105q13 35 48 58.5t55 23.5q35 0 87 -65t52 -128q0 -55 -29 -92q-42 -50 -81 -115.5t-61 -113t-58 -129.5q-3 -5 -7 -16.5t-8.5 -20t-9.5 -12.5q-36 -28 -64.5 -76t-44 -91.5t-35.5 -95t-38 -79.5 q-102 -156 -123 -308q-36 -20 -66 -20q-40 0 -67 43q-12 -3 -32 -10.5t-27 -10.5q-2 6 -11.5 26.5t-9.5 27.5q0 6 2 8q18 30 22 91t7 73q9 43 22.5 88t33 96t33 84t39.5 94t36 86q-11 8 -23 8q-22 0 -95.5 -37.5t-105.5 -37.5q-43 0 -93 45t-50 96z" />
<glyph unicode="2" horiz-adv-x="970" d="M-143 102q0 33 23.5 51.5t80.5 41.5q43 15 64 59q35 74 91.5 143.5t121.5 128t131 112.5t138 120.5t124 130.5q34 41 54 95.5t20 105.5q0 45 -56 45q-29 0 -55.5 -11t-43 -23.5t-47 -39t-50.5 -41.5q-9 -6 -39 -16q-40 16 -66 59.5t-26 79.5q0 78 79 154.5t174 76.5 q85 0 158.5 -61.5t113.5 -148.5t40 -169q0 -80 -57 -183.5t-134 -180.5q-17 -17 -50.5 -52t-54.5 -56t-52 -48.5t-60 -48.5q-3 -2 -20 -13.5t-22.5 -16t-18.5 -16.5t-19 -21.5t-12.5 -25t-9.5 -32.5q16 0 42.5 -1t39.5 -1t40 1t42 1q110 0 221 -27q94 -23 130 -62t58 -140 q-10 -29 -37 -29q-10 0 -16 2q-99 35 -227 35q-274 0 -406 -64q-14 -7 -37 -21.5t-41 -24t-32 -9.5q-15 0 -42 5t-40 5q-12 0 -34 -2t-34 -2q-54 0 -100.5 41t-46.5 94z" />
<glyph unicode="3" horiz-adv-x="937" d="M0 1049q0 69 82 120t176 56q76 2 265 12t292 10q123 0 123 -174q0 -65 -57 -86q-41 -15 -74 -41.5t-77 -74t-62 -64.5q7 -7 19.5 -21t19.5 -22t18 -18t20 -17q78 -63 108 -149t30 -197q0 -89 -50.5 -164t-130 -121t-170.5 -71t-178 -25q-97 0 -154.5 21t-93.5 81 q-19 30 -27 44.5t-17 41t-9 52.5q0 93 99 135q19 -8 32 -20.5t19.5 -30.5t9.5 -31t5.5 -37t4.5 -35q55 -12 111 -12q113 0 226.5 58t158.5 153q10 20 10 45q0 38 -45.5 69t-101.5 31q-41 0 -85 -26.5t-83.5 -53t-69.5 -26.5q-37 0 -81 48.5t-44 94.5q0 20 16 52.5t45 74.5 t56.5 78.5t64.5 84t54 71.5v2q0 6 -2 12q-27 -4 -85.5 -11.5t-92 -12.5t-80 -17.5t-82.5 -30.5q-50 8 -81.5 55.5t-31.5 86.5z" />
<glyph unicode="4" horiz-adv-x="903" d="M20 356q0 46 27 95q28 52 56.5 111.5t63.5 136.5t52 114q92 199 137 377q1 5 4 20.5t5 23.5t6 22t8.5 22t10.5 16.5t14 12.5t18 4q35 0 59.5 -25t34 -63t13 -63t3.5 -44q0 -98 -29 -207t-79 -196q-18 -30 -35.5 -72.5t-17.5 -67.5q0 -8 3 -13.5t10 -8.5t13.5 -5 t16.5 -2.5t16.5 -1t16.5 0t14 0.5q49 0 67.5 15t55.5 79q11 18 34.5 62.5t41 75.5t40 66t43 53.5t37.5 18.5q33 0 57.5 -51.5t24.5 -89.5t-18 -78q-106 -240 -178 -385q-79 -155 -93 -260q0 -28 -16 -46.5t-41 -18.5q-22 0 -39 11t-28 27.5t-18.5 41.5t-11 47t-5 50.5 t-1.5 46t0.5 39t0.5 23.5q-57 -3 -150 -44.5t-119 -41.5q-5 0 -59 4q-5 11 -20 38.5t-23 44t-15.5 41t-7.5 44.5z" />
<glyph unicode="5" horiz-adv-x="917" d="M41 211q0 48 29.5 109t62.5 61q27 0 50.5 -28t23.5 -58q0 -25 -4.5 -71.5t-5.5 -61.5q17 -25 45 -25q12 0 18 2q92 16 161.5 60.5t109.5 107.5t59.5 134t19.5 147q0 53 -19 91t-54 38q-45 0 -92.5 -28.5t-61.5 -70.5q-11 -28 -32 -45.5t-46 -17.5q-59 0 -103 59t-44 119 q0 43 27 97t54 112t27 111q0 16 -9 46t-9 44q0 34 32.5 90.5t79.5 69.5q29 9 81.5 27t84.5 28t80 19t94 9q71 0 143 -18t134.5 -62.5t77.5 -105.5q4 -16 26 -76q-45 -26 -80 -26q-31 0 -98 17.5t-98 17.5q-49 0 -123 -18.5t-134.5 -50.5t-60.5 -65q0 -11 3.5 -18.5t6.5 -10 t14 -8t15 -8.5q91 -46 148 -115t79.5 -149.5t22.5 -183.5q0 -108 -40.5 -233t-96.5 -154q-10 -4 -27 -21q-60 -71 -143.5 -94.5t-196.5 -23.5q-66 0 -121.5 42t-82.5 94t-27 95z" />
<glyph unicode="6" horiz-adv-x="970" d="M41 352q0 45 11 97.5t20.5 81.5t31.5 92q61 181 168 325t287 309q24 21 49 21q47 0 75 -58.5t28 -119.5q0 -24 -28.5 -59.5t-67 -73t-48.5 -52.5q16 0 43 -1t39 -1q7 0 21.5 1t21.5 1q62 0 118 -43t88 -105.5t32 -121.5q0 -133 -92.5 -273t-212.5 -222q-26 -16 -41 -37 q-36 -46 -141 -89.5t-146 -43.5q-73 0 -133.5 62.5t-91.5 147t-31 162.5zM240 270q0 -55 47 -55q32 0 80 20t59 46q-60 91 -70 129t-10 176q-62 -97 -100 -279q-6 -18 -6 -37zM526 387q0 -5 4 -16.5t5 -16.5q85 39 143 106t96 173q2 4 2 10q0 15 -12 27t-29 12 q-32 0 -59 -14.5t-44.5 -34t-34.5 -53.5t-26 -60t-22.5 -67t-20.5 -60q-2 -2 -2 -6z" />
<glyph unicode="7" horiz-adv-x="886" d="M41 1098q0 45 28 79t67 51.5t90.5 28.5t88 14t70.5 3q201 0 424 -82q57 -21 88 -71.5t31 -114.5q0 -21 -10.5 -43.5t-35 -48t-40 -40.5t-51.5 -45t-43 -36q-130 -117 -195 -256q-16 -35 -66.5 -108.5t-68.5 -121.5q-11 -37 -31 -57q-86 -89 -111 -248q-38 -10 -61 -10 q-51 0 -81 48t-30 118q0 38 18.5 98.5t43.5 105.5q79 148 113 209.5t103.5 172t137.5 196.5q3 5 23 32t32 44q-48 22 -100 22q-121 0 -274 -86q-24 -12 -45 -12q-42 0 -78.5 54.5t-36.5 103.5z" />
<glyph unicode="8" horiz-adv-x="897" d="M0 301q0 22 5 44t10.5 39.5t20 39t23.5 35t32 36t34 33.5t41.5 35.5t42 33.5t48 36.5t48.5 36.5q8 6 25 30q-31 91 -45 137t-27.5 118t-13.5 137q0 140 110 249t252 109q101 0 186 -89.5t85 -211.5q0 -184 -66 -281l-19 -28.5t-20.5 -30.5t-19 -27.5t-21.5 -30 t-20.5 -25.5t-24 -27.5t-23 -23.5t-26.5 -24t-27 -20q-4 -3 -7.5 -7t-8 -11t-8.5 -11q53 -80 76.5 -133t23.5 -115q0 -61 -33.5 -126t-88.5 -118.5t-135 -87.5t-165 -34q-73 0 -135.5 52t-95.5 123.5t-33 137.5zM180 240q0 -5 1 -9.5t2.5 -8t5 -7t5.5 -6t7 -5t7.5 -3.5 t8.5 -3t8 -3t8.5 -2.5t8.5 -2.5q175 21 282 152q15 18 15 43q0 31 -24 65.5t-60 34.5q-48 0 -143.5 -93t-123.5 -132q-8 -12 -8 -20zM410 973q0 -66 43 -176q58 51 97 91.5t76.5 90.5t58 105.5t26.5 117.5q-14 2 -41 2q-95 0 -177.5 -73.5t-82.5 -157.5z" />
<glyph unicode="9" horiz-adv-x="976" d="M0 119q7 27 25 38.5t49 14.5q182 24 319 193q-17 12 -41 12q-12 0 -35 -4t-36 -4q-56 0 -99.5 55t-62.5 124t-19 132q0 112 43 230.5t113 216t165.5 171.5t196.5 101q36 8 56 8q58 0 104.5 -26t75.5 -67.5t48 -97t26.5 -109.5t7.5 -110q0 -144 -45.5 -283.5 t-127.5 -260.5t-180 -224t-218 -196q-71 -56 -191 -56q-68 0 -114.5 36t-59.5 106zM294.5 604q0.5 -2 1.5 -5t3.5 -4t7.5 -1q81 0 170 64t109 145q-54 74 -54 104q0 16 20.5 28t70.5 28q1 1 3.5 4.5t4.5 5.5q-1 2 -5 11.5t-4.5 11.5t-4.5 11t-5.5 12t-5.5 10.5t-6.5 11 t-6.5 10.5t-7.5 11.5t-8.5 10t-10 10.5q-120 -75 -196 -207.5t-76 -257.5q0 -2 -0.5 -7t0 -7zM684 907q16 -14 33 -24q3 6 9 18.5t9 18.5q-10 10 -14 10q-1 0 -37 -23z" />
<glyph unicode=":" horiz-adv-x="342" d="M-82 147q0 53 55 100.5t113 47.5q39 0 68 -42t32 -103q0 -54 -46 -99t-105 -61q-45 15 -81 71.5t-36 85.5zM137 901q0 55 52.5 96t115.5 41q1 0 15 -5t18 -11q45 -63 45 -109q0 -56 -41 -103.5t-90 -47.5q-44 0 -79.5 44.5t-35.5 94.5z" />
<glyph unicode=";" horiz-adv-x="374" d="M-123 -188q0 22 16.5 45.5t37 40.5t37 43.5t16.5 54.5q0 19 -17.5 66.5t-17.5 70.5q0 51 38.5 103.5t92.5 52.5q23 0 40.5 -6.5t29 -20t19.5 -27t13 -35t8 -36.5t6 -39t5 -35q-6 -53 -22.5 -111.5t-43 -115.5t-68.5 -94t-90 -37q-42 0 -71 22t-29 58zM133 901 q0 50 50.5 98.5t103.5 51.5q47 0 88 -50.5t41 -107.5q-2 -73 -42 -115.5t-112 -42.5q-48 0 -88.5 55t-40.5 111z" />
<glyph unicode="&#x3c;" horiz-adv-x="921" d="M-41 434q0 55 57 92q317 206 627 412q5 3 25 16t27.5 18t24.5 15t26.5 14t22 7.5t22.5 3.5q30 0 47.5 -25.5t17.5 -62.5q0 -29 -20 -62.5t-44 -59.5t-68.5 -61.5t-67 -51.5t-66.5 -46q-12 -8 -45.5 -30.5t-47.5 -32.5t-41.5 -29.5t-54 -40t-59.5 -47.5q188 -42 298 -87 t202 -140q39 -39 39 -84q0 -33 -20.5 -69t-53.5 -36q-21 0 -57.5 11.5t-55.5 25.5q-76 56 -209 82q-50 10 -370 70q-4 1 -18 3t-19.5 3t-16.5 4t-17 6.5t-13 9.5t-11 14q-61 106 -61 158z" />
<glyph unicode="=" horiz-adv-x="1169" d="M0 428q0 41 79.5 73t193 48t208.5 23.5t156 7.5h66t66.5 -1t68 -3t64 -5.5t61.5 -8.5t53 -12t46.5 -17t34.5 -22.5t23.5 -29t7.5 -35.5q0 -34 -55.5 -61t-105.5 -27q-17 0 -49 11.5t-48 11.5q-15 0 -48.5 -10.5t-51.5 -10.5t-52 1t-50 1q-195 0 -453 -43q-28 -4 -41 -4 q-56 0 -115 34.5t-59 78.5zM8 764q0 48 10.5 84.5t34.5 36.5q71 3 203.5 9.5t241 10.5t204.5 4q209 0 379 -45q19 -34 19 -67q0 -13 -10 -70q-12 -5 -49.5 -21t-63 -25t-41.5 -9q-10 0 -36 3t-40 1q-61 0 -178 -13.5t-176 -13.5q-52 0 -158 -11t-158 -11q-58 0 -120 42 t-62 95z" />
<glyph unicode="&#x3e;" horiz-adv-x="1058" d="M0 975q0 29 18 53.5t48 24.5q6 0 18 -4q64 -31 193 -51.5t153 -26.5q91 -23 266 -62.5t254 -58.5q56 -14 82.5 -58.5t26.5 -101.5q0 -85 -64 -127q-35 -22 -103.5 -68.5t-103.5 -68.5q-5 -3 -27.5 -16t-31.5 -21q-56 -56 -118.5 -102t-167.5 -110.5t-132 -82.5 q-13 -8 -39 -26.5t-37 -25t-30.5 -16.5t-37.5 -13t-40 -3q-29 0 -74 10q-10 33 -10 60q0 101 180 242q36 28 115 93.5t140.5 112t121.5 84.5q10 6 20.5 15.5t24.5 24t23 22.5q-10 4 -32.5 17.5t-33.5 15.5q-37 6 -94 12t-102 10.5t-99.5 13t-96 18.5t-83 29t-68 43t-43 60.5 t-16.5 81.5z" />
<glyph unicode="?" horiz-adv-x="739" d="M82 111q0 33 18 87.5t48.5 100t58.5 45.5q23 0 40 -9.5t26 -19t16 -33t8.5 -30.5t5.5 -33q-2 -74 -45.5 -153.5t-83.5 -79.5q-39 0 -65.5 39.5t-26.5 85.5zM180 618q0 36 15.5 74.5t46 79t53.5 66.5t61 65q130 134 191 246q2 4 7 13.5t8 17t3 14.5q0 18 -15.5 30.5 t-29.5 12.5q-7 0 -17.5 -3t-23.5 -8.5t-24.5 -11t-28 -14.5t-26.5 -15t-26.5 -15.5t-21.5 -12.5q-5 -15 -13 -42.5t-13.5 -42.5t-14 -32.5t-19.5 -25.5t-26 -8q-38 0 -62 53t-24 100q0 130 85.5 214.5t211.5 84.5q122 0 192 -80.5t70 -199.5q0 -210 -188 -426 q-33 -37 -100.5 -101t-96.5 -96q-29 -33 -88 -33q-38 0 -62 30t-24 66z" />
<glyph unicode="@" horiz-adv-x="1511" d="M61 547q0 112 49.5 225t136 212t189 183t223.5 158q184 115 355 115q97 0 175.5 -43t125.5 -108t79 -148.5t44 -158.5t12 -144q-7 -107 -31 -190.5t-82 -153.5q-60 -73 -211 -201q-19 -17 -44 -30.5t-59.5 -29.5t-49.5 -24q-116 39 -172 139q-20 39 -45 39 q-14 0 -40.5 -18.5t-41.5 -24.5q-58 -27 -103 -27q-61 0 -112 66t-51 158q0 78 40 161.5t99 146.5t127.5 103.5t122.5 40.5q108 0 172.5 -80.5t64.5 -210.5q0 -73 -30 -120q-21 -29 -21 -47q0 -15 10 -27q107 50 195 145t88 183q0 13 -1 36.5t-1 34.5q0 40 2 58 q0 100 -72.5 161.5t-161.5 61.5q-23 0 -47.5 -3.5t-45.5 -8t-48 -14.5t-45 -17t-46.5 -21.5t-43 -22t-44.5 -25t-40 -23.5t-40.5 -25t-35.5 -22q-138 -93 -250 -241.5t-116 -270.5q0 -73 31.5 -129t81.5 -89.5t119 -55t135.5 -29t140.5 -7.5h49q96 0 96 -39q0 -36 -26.5 -64 t-63 -43t-80.5 -24.5t-72 -12.5t-43 -3q-133 0 -227 24.5t-158 100.5q-75 90 -118.5 200.5t-43.5 223.5zM625 567q44 0 75.5 13t52.5 42t32 53.5t26 67.5q-37 -16 -61 -28.5t-51.5 -33.5t-45.5 -49t-28 -65z" />
<glyph unicode="A" horiz-adv-x="923" d="M-61 426q0 22 11.5 38t27 25t42 15.5t46.5 9t51 5.5t45 5q41 82 139 269t148 288q8 16 30 50t34 62t11 58v13q68 68 142 192q21 34 39 51t43 17q44 0 79 -45t35 -90q0 -35 -4 -121q-44 -24 -62.5 -65t-21.5 -101q-4 -91 -18 -265t-19 -255q5 -5 22 -7.5t31 -6t25.5 -25.5 t11.5 -64q0 -22 -11 -39.5t-26.5 -30t-31 -26.5t-26.5 -36.5t-11 -51.5q0 -48 7 -147.5t7 -147.5q-23 -18 -47 -18q-44 0 -77.5 54t-47.5 118t-24.5 118t-14.5 54q-38 0 -95.5 -19t-80.5 -20q-48 -55 -85.5 -126t-73.5 -152t-66 -130h-72q-43 64 -43 146q0 39 9.5 83 t25.5 98.5t23 84.5q-7 5 -32.5 22.5t-36.5 26.5t-27.5 25t-23.5 30.5t-7 30.5zM444 569q5 0 13 1t28 4t35.5 7.5t28 14t12.5 20.5q0 2 -3 18.5t-3 31.5q0 36 6.5 93t13.5 97l7 39l-115 -250z" />
<glyph unicode="B" horiz-adv-x="968" d="M-82 174q0 14 8 23.5t24 14t29 7t33 4t27 2.5q31 43 49 93t33 121.5t22 97.5q2 4 2 12q0 23 -14 63.5t-14 53.5q0 24 8 73q44 26 113 70q5 14 21.5 49t27.5 65.5t16 61.5q-23 -6 -43 -22.5t-31 -32.5t-26.5 -28.5t-32.5 -12.5q-20 0 -44 21.5t-24 43.5q0 44 20.5 92 t58 95.5t71.5 84.5t81.5 84t67.5 70q66 12 105 70q12 18 37 18q12 0 24 -6q31 -19 69.5 -30.5t87 -21t73.5 -17.5q27 -53 41.5 -85.5t27.5 -80t13 -90.5q0 -87 -37.5 -166t-102.5 -135q1 -17 8 -33t14.5 -25.5t21.5 -24.5t20 -22q104 -134 104 -297q0 -192 -119 -264 q-17 -11 -59.5 -40t-74.5 -47t-66 -30q-134 -47 -293 -47q-11 0 -44 14.5t-50 14.5q-15 0 -33.5 -15.5t-42.5 -31t-53 -15.5q-15 0 -28 3t-39 12.5t-44 15.5q27 30 27 57q0 19 -35 55t-35 58zM307 274l9 -4.5l8 -4t6 -1.5q58 10 118 28t127 46.5t109.5 72t42.5 93.5 q0 55 -49.5 91t-106.5 36q-118 0 -155 -90q-52 -124 -109 -267zM625 1026q49 43 69.5 74.5t20.5 68.5q0 8 -10.5 26t-14.5 30q-62 -98 -65 -199z" />
<glyph unicode="C" horiz-adv-x="876" d="M41 381q0 266 122 532.5t320 464.5q9 9 18.5 21t22 29t21.5 28q13 0 35.5 1t33.5 1q75 0 117 -26q70 -110 97.5 -187.5t27.5 -204.5q0 -94 -15.5 -152.5t-64.5 -111.5q-48 -51 -86 -51q-52 0 -84.5 40t-32.5 73q0 28 22 96t26 88q4 16 6 35t4 47.5t4 48.5 q-12 -11 -26.5 -22.5t-23 -19t-12.5 -15.5q-25 -42 -80 -140t-87 -149q-31 -50 -55 -115t-35.5 -113.5t-27 -126t-24.5 -114.5q-10 -45 -10 -78q0 -40 15.5 -78.5t45.5 -38.5q11 0 30 19t45 55.5t45 64.5t47 72.5t34 53.5q8 12 23 44.5t29 51t32 18.5q29 0 48.5 -61 t19.5 -111q0 -91 -51 -178.5t-133 -142t-167 -54.5q-62 0 -111 27t-79 69t-50 97.5t-28 108t-8 104.5z" />
<glyph unicode="D" horiz-adv-x="1044" d="M-164 166q0 25 14 39t37 14q10 0 46.5 -12t48.5 -12q15 0 86 26q32 225 112.5 446t212.5 500q-98 5 -137.5 19.5t-69.5 70.5q-12 21 -12 43q0 41 66 83t127 41q13 0 38 -0.5t39 -0.5q25 0 77.5 1t78.5 0q58 0 74 -38q1 -4 5 -6.5t11 -6t10 -5.5q96 -57 167 -165t104 -224 t33 -225q0 -226 -126.5 -388t-359.5 -245q-37 -13 -115.5 -53.5t-123.5 -53.5q-78 -22 -78 -96v-10q0 -30 -10.5 -54t-32.5 -24q-25 3 -44 19t-27 31t-21.5 47t-18.5 42q-28 15 -88 45.5t-90 46.5q-3 10 -12.5 32t-15 40t-5.5 33zM287 309q0 -5 10 -22q95 30 186 81.5 t168 120t124.5 158.5t47.5 184q0 52 -18.5 120t-58.5 125t-89 57q-21 0 -38 -22t-26.5 -48.5t-22.5 -67t-21 -59.5q-23 -52 -84 -182t-92 -203q-20 -46 -51 -137t-35 -103v-2z" />
<glyph unicode="E" horiz-adv-x="1019" d="M-82 84q0 10 2.5 18.5t9 16t12 13.5t16.5 11.5l18 9t20.5 7.5t20.5 6.5t21 6.5t19 5q16 71 42 199.5t34 167.5q-1 3 -12.5 24t-19 39.5t-7.5 32.5q0 17 13 39t32 22q55 16 82 54.5t45 101.5q7 28 18 59.5t25.5 70.5t22.5 63q-88 26 -130 55.5t-42 89.5q0 10 5.5 20 t16 19.5t22.5 18t30 17.5t33.5 16t36.5 16t36 14.5t36 13.5t32 12q53 21 65.5 32t40.5 65q22 0 69 1.5t81 2.5h21q27 0 61 -2q48 -2 83.5 -8.5t73.5 -21.5t62 -37t39.5 -58t15.5 -82q0 -49 -105 -49q-9 0 -26.5 2t-26.5 2q-76 0 -137 -30t-99 -82t-60.5 -114.5t-28.5 -134.5 q22 -2 96 -2.5t122 -8.5t93 -34v-88q-86 -77 -186 -90q-68 -11 -155 -41t-101 -57q-76 -144 -109 -254q29 4 86 12t87.5 12t75 7.5t81.5 3.5q48 -2 98.5 -7.5t114 -17.5t103.5 -34.5t40 -53.5q0 -41 -33 -68t-92 -40t-115 -19.5t-129.5 -11.5t-107.5 -10q-21 -3 -178 -35 q-152 -31 -239 -31h-5q-71 0 -118.5 28.5t-47.5 94.5z" />
<glyph unicode="F" horiz-adv-x="954" d="M20 580q0 35 21 58.5t52.5 35.5t63.5 21t59 23t34 34q49 108 100 247q0 1 1 3.5t1 3.5q0 13 -6 17.5t-22 4.5q-20 0 -63.5 -10t-65.5 -10q-57 0 -88 32.5t-31 89.5q0 38 12 70q32 22 71.5 41t89.5 40t77 34q8 4 18.5 7t17 5.5t14 8t13 16t10.5 26.5q36 5 105 15.5 t111.5 16.5t102.5 11.5t111 5.5h18q61 0 95.5 -2t86 -17t89.5 -46v-102q-36 -25 -96.5 -38.5t-119 -20.5t-115.5 -18.5t-101 -42.5t-61 -83q-16 -47 -52 -134t-49 -122q52 -9 188 -16t218 -29q-25 -56 -49 -87t-68 -48q-18 -7 -72 -31t-91 -35.5t-77 -13.5 q-50 -3 -112.5 -42.5t-71.5 -72.5q-8 -28 -32 -86t-33 -92q-1 -5 -13 -53.5t-17 -65.5t-16 -54t-22 -62t-23 -46q-112 45 -112 162q0 144 29 305q-8 4 -29.5 13.5t-31 14.5t-26 17t-23.5 24.5t-13.5 32t-6.5 44.5z" />
<glyph unicode="G" horiz-adv-x="874" d="M41 395q0 263 120 507t322 437q28 33 43 35q25 4 59 32.5t42 33.5q57 -4 103 -52t71.5 -117.5t39 -138.5t13.5 -126q0 -55 -13.5 -113t-45 -103t-72.5 -45q-46 0 -64 32t-18 93q0 28 5 87t5 87q0 62 -12 123q-93 -56 -139 -141q-16 -30 -52.5 -94t-61.5 -114.5 t-42 -100.5q-5 -13 -18.5 -39t-18.5 -41q-67 -195 -67 -426q0 -36 17 -73.5t44 -37.5q14 0 33 24t40.5 66t39.5 81.5t39 87.5t30 67q-3 2 -17.5 14.5t-18.5 16.5t-16 15.5t-16 17t-12 17t-11 20t-6 19.5t-3 23q0 28 14 60q70 37 166 37q28 0 47 -0.5t48 -5t47 -12t31.5 -23 t13.5 -37.5q0 -12 1 -38t1 -38q0 -37 -12 -78t-21 -62t-37.5 -74.5t-34.5 -64.5q-21 -40 -52 -124.5t-56 -126.5q-44 -76 -103 -227t-90 -212q-13 -22 -35 -22q-45 0 -66.5 42.5t-21.5 84.5q0 121 47 295q-113 99 -142 132q-61 70 -77 167q-10 59 -10 153z" />
<glyph unicode="H" horiz-adv-x="1185" d="M0 569q0 54 30 115.5t79 71.5q13 3 51 22q82 31 101.5 50t57.5 100q71 154 234 487q7 0 27.5 1t31 1t23 -5t18.5 -15q47 -80 47 -162q0 -47 -26 -107t-59.5 -130.5t-45.5 -125.5q47 -24 109 -24q16 0 50 2t50 2h29q217 440 231 467q17 35 45 35q103 0 103 -172 q0 -72 -29 -121q-74 -128 -168 -367q-16 -42 -54 -115.5t-52 -105.5q-76 -174 -117 -289q-6 -16 -9.5 -34t-5 -42.5t-2 -36t0.5 -40.5v-29q-24 -12 -43 -12q-31 0 -54 23.5t-34.5 58t-17 65.5t-5.5 56q0 33 4 70t8 62.5t16 70.5t16.5 61t20.5 70t19 63q-10 1 -26.5 4.5 t-22.5 3.5h-10q-10 -3 -35.5 -10t-40.5 -11.5t-38.5 -12.5t-38.5 -15.5t-30.5 -17t-24.5 -20.5t-12 -24q-91 -366 -98 -399q-6 -28 -14.5 -38.5t-26.5 -10.5q-24 0 -42 7t-28.5 18.5t-17.5 27t-9 33t-3 35.5t0 35t0 32q-2 33 -5 96t-5 95q-40 15 -63.5 26.5t-46 29t-32.5 41 t-10 54.5z" />
<glyph unicode="I" horiz-adv-x="608" d="M41 184q63 389 137 615q42 129 150 311t159 182q35 0 68 -56t33 -103q0 -32 -15.5 -80.5t-37.5 -83.5q-41 -68 -95.5 -210.5t-91.5 -205.5q-33 -59 -62 -177t-55 -169q-12 -24 -26.5 -84.5t-34.5 -94.5q-19 -34 -53 -34h-2q-37 0 -51.5 43.5t-22.5 146.5z" />
<glyph unicode="J" horiz-adv-x="866" d="M0 371q0 91 24 167.5t82 163.5q10 17 35 17q35 0 62.5 -38.5t27.5 -76.5q0 -33 -23.5 -121.5t-23.5 -140.5q0 -54 6 -113q45 18 85.5 53t73.5 83.5t55.5 89.5t48.5 96q70 152 166.5 449.5t123.5 371.5q3 10 17 32t20 32q86 -74 86 -181q0 -53 -12.5 -110.5t-41 -145.5 t-34.5 -110q-3 -9 -9 -23.5t-10 -27t-5 -23.5q-11 -126 -99 -317q-8 -12 -8 -21q-9 -51 -31.5 -98t-64.5 -110.5t-55 -86.5q-43 -75 -121.5 -129.5t-143.5 -54.5q-67 0 -138 62.5t-81 144.5q-12 83 -12 166z" />
<glyph unicode="K" horiz-adv-x="946" d="M-82 612q0 56 39.5 101t91.5 45q18 0 53.5 -13.5t51.5 -13.5q38 0 69.5 10.5t54.5 34t38.5 44.5t30 58.5t20.5 58t17 60.5q2 7 3 11q19 75 70 202t69 183q58 5 78 8q17 -17 20 -37.5t5 -24.5q30 -53 30 -125q0 -31 -6 -66t-16 -78t-14 -69v-2l8 -24q96 53 184 139.5 t146 181.5q30 37 67 37q34 0 58 -37t24 -92q0 -74 -46.5 -144t-121.5 -145q-134 -131 -299 -231l-18 -12q-29 -3 -52.5 -17.5t-38.5 -34t-28 -49t-20.5 -53t-17 -55.5t-15.5 -49q31 -78 67 -112t92 -34q12 0 39 5.5t43 5.5q14 0 22 -4t11 -13.5t3.5 -15t0.5 -19.5 q0 -26 -10.5 -53t-22 -43.5t-35 -46.5t-32.5 -43q-21 -6 -43 -6q-18 0 -37.5 8.5t-42.5 26.5t-40.5 33.5t-46.5 43.5t-46 43q-25 -21 -41.5 -58.5t-24.5 -67t-36 -52t-78 -22.5q-9 0 -18 1.5t-18 6t-15.5 8t-16.5 12t-14.5 12.5t-16.5 14.5t-16 14.5q4 54 20.5 111t41.5 127 t36 106q2 6 2 19q0 43 -63 43h-45q-68 0 -111 36t-43 111z" />
<glyph unicode="L" horiz-adv-x="880" d="M-61 111q0 65 51 90q43 21 66.5 58t39.5 91q7 24 26 66t21 47q145 344 185 452q28 76 61.5 220t50.5 200q10 31 45 31q40 0 72.5 -84.5t32.5 -148.5q0 -44 -8 -80q-7 -33 -25 -136t-30 -155.5t-34.5 -133.5t-52.5 -141t-69 -108q-8 -11 -23 -55q35 -6 108 -20.5 t111 -20.5q32 26 56.5 70.5t48 88t53.5 68.5q64 -27 89.5 -57t25.5 -82q0 -81 -64 -185q2 -8 6.5 -21t7.5 -23t3 -19q0 -15 -6 -29.5t-16 -30.5t-13 -24q-137 -36 -148 -39q-25 12 -26 14q-59 54 -162 54q-14 0 -43.5 -2.5t-44.5 -2.5q-19 0 -53 -23.5t-58 -21.5h-14 q-30 0 -83 -14t-73 -14q-38 0 -106 41q-1 9 -4.5 37t-3.5 43z" />
<glyph unicode="M" horiz-adv-x="1144" d="M43 157q-1 22 0 42v6v5.5v6.5q0 45 4 68q53 362 166 612q41 91 41 154q0 21 -11.5 63t-11.5 60q0 43 56 79q12 -5 31.5 -15t27.5 -13q12 8 16.5 12.5t7 11t5.5 11.5q29 42 48 60.5t40 18.5q35 0 88 -65q0 -2 -1 -12t-1 -15q0 -12 3 -33.5t3 -31.5q0 -41 -45 -138.5 t-45 -132.5t35 -123q129 163 188 222q92 94 193 151q29 17 41.5 26t25.5 31.5t13 53.5q0 19 24.5 34t50.5 15q38 0 64 -31t35.5 -69.5t9.5 -79.5q0 -66 -29 -142q-30 -82 -89 -234.5t-103.5 -274.5t-79.5 -232q-4 -13 -15.5 -88.5t-28 -128.5t-40.5 -53q-57 0 -97 69.5 t-40 145.5q0 88 35.5 246t41.5 200q-78 -85 -121.5 -166.5t-42.5 -177.5v-16q0 -43 -18 -74t-49 -31q-56 0 -91.5 56.5t-35.5 121.5q0 12 3 38t3 38q0 52 -29 109q-57 -79 -90 -210t-43 -245q0 -5 -1 -19.5t-2 -19.5t-3 -16t-5 -15t-8 -10t-13 -8t-19 -2q-23 0 -39.5 9 t-26 24.5t-16 36t-8 42t-2.5 43.5z" />
<glyph unicode="N" horiz-adv-x="1058" d="M41 178q0 104 29.5 223.5t85.5 282t75 229.5q7 25 7 48q0 31 -11.5 92t-11.5 94q0 34 10 63q10 0 29.5 -0.5t30 -0.5t24 1t22.5 5.5t15 11.5q38 45 50 52q10 6 20 5q29 0 75 -49t46 -98q0 -43 -39 -155.5t-39 -141.5q0 -30 7.5 -70t19 -90t16.5 -78q28 4 52.5 41.5 t37.5 71.5q26 76 71 152t117.5 176t96.5 137q9 23 16 28q32 20 76.5 62t89.5 75t96 48q3 -2 25.5 -12t32.5 -20t10 -26v-4q-79 -206 -170 -319q-167 -208 -314 -486q-18 -28 -20 -39q-4 -42 -36.5 -109.5t-39.5 -96.5q-4 -13 -28 -92t-33 -123q-17 -70 -82 -70h-13 q-94 68 -94 186q0 16 3 48.5t3 45.5q0 37 -12 68.5t-45 87.5q-39 -45 -60.5 -104.5t-38 -146t-24.5 -115.5q-5 -16 -20.5 -43t-18.5 -33q-85 30 -112 68.5t-27 119.5z" />
<glyph unicode="O" horiz-adv-x="1224" d="M41 434q0 211 125 445t295 387q42 38 70 53.5t57 15.5q37 0 117 -39q16 11 65.5 48t69.5 50t54 27.5t62 14.5q93 0 160.5 -105t67.5 -239q0 -52 -19.5 -107.5t-53 -124t-46.5 -102.5q-29 -77 -47.5 -121t-52 -106t-70.5 -109q-19 -24 -70 -89.5t-77.5 -97t-71 -81.5 t-89 -87t-93.5 -69q-30 -18 -74 -18q-91 0 -165 41t-119.5 107.5t-70 145.5t-24.5 160zM268 317q0 -19 4 -59q25 -14 56 -14q39 0 91.5 32t105 84.5t84 88t61.5 71.5q-91 71 -117.5 104.5t-69.5 131.5q-2 4 -6 6.5t-11 6.5t-11 7q-48 -74 -71 -112.5t-55.5 -103 t-46.5 -123.5t-14 -120zM694 696q0 -47 54 -67q64 67 133 200t98 246q-3 1 -6 1.5t-5 1t-3 1t-2 0.5q-15 0 -33 -12q-87 -66 -161.5 -174t-74.5 -197z" />
<glyph unicode="P" horiz-adv-x="1048" d="M0 936q0 68 55 148.5t129 134.5q63 46 112.5 78t117 68.5t135.5 55.5t133 19q102 0 175 -66t147 -211q45 -92 45 -176q0 -82 -48.5 -175t-122 -168.5t-162 -133.5t-167.5 -78q-17 -4 -58 -13t-65 -16q-39 -92 -61.5 -163.5t-26.5 -145.5q-2 -43 -20 -82t-50 -39 q-48 0 -88.5 67.5t-40.5 127.5q0 137 45 297q6 21 42 129.5t44 169.5q1 10 12 27t13 24q27 84 37 119q-42 -14 -61.5 -24t-27 -15.5t-28 -32t-39.5 -47.5q-30 -37 -67 -37q-44 0 -76.5 51t-32.5 107zM492 786q0 -34 28 -46.5t90 -12.5q93 0 169.5 74t76.5 166 q0 71 -27.5 131.5t-78.5 60.5h-11q-6 0 -26 3t-31 3q-25 0 -48.5 -22.5t-42 -62t-32 -76.5t-28 -82t-21.5 -62q-18 -46 -18 -74z" />
<glyph unicode="Q" horiz-adv-x="1007" d="M41 385q0 174 45 303q11 31 32.5 94.5t33.5 98t34.5 90.5t43 95t51 86t65.5 87q24 28 46 43t62 34t68 36q61 37 131 37q76 0 137.5 -42t99 -109.5t57.5 -146t20 -157.5q0 -35 -11 -83.5t-20 -76t-35.5 -97t-30.5 -81.5q-35 -95 -133 -217q-17 -20 -51 -67t-62 -79 t-59 -57q-98 -77 -98 -244v-45v-16q-1 -10 -6.5 -32t-7.5 -32q-117 37 -138 136q-19 75 -96 114q-95 49 -136.5 130t-41.5 198zM203 307q0 -26 18 -41.5t47 -15.5q16 0 28.5 17.5t19.5 48t11.5 59.5t6 66t2 53.5t0.5 33.5q0 46 11.5 71.5t45.5 25.5q32 0 54.5 -20.5 t32.5 -45t26 -45.5t35 -22q188 175 260 489q8 40 8 61q0 39 -17.5 72t-58.5 33q-53 0 -100 -53.5t-71.5 -123.5t-24.5 -128q0 -25 17 -81.5t17 -84.5q0 -26 -19 -46t-44 -20q-14 0 -28 8.5t-27 26.5t-23.5 34.5t-22.5 44t-17.5 41.5t-16 41t-11.5 30q-76 -105 -115 -245.5 t-44 -283.5z" />
<glyph unicode="R" horiz-adv-x="1044" d="M-41 829q0 60 58 136t133 141q134 116 318 211.5t308 95.5q96 0 182 -96.5t86 -208.5q0 -47 -16.5 -92t-41 -81.5t-64.5 -73.5t-75 -63.5t-85.5 -57t-83 -48t-80.5 -41.5q-8 -36 -8 -80q0 -55 21 -151t24 -117q33 -33 65 -33q37 0 135 49t109 52q30 6 33 6q24 0 40.5 -24 t16.5 -50q0 -29 -53 -87.5t-107 -104.5q-25 -20 -73 -46t-58 -32q-30 3 -56 9.5t-49 19.5t-40 23t-36.5 32t-30 33t-28.5 40.5t-24.5 40t-25 45t-23.5 43.5q-18 -33 -42 -121t-49 -148t-58 -60q-43 0 -81 60t-38 110q0 37 5 80t17.5 103t18.5 87.5t25 102t20 77.5 q3 11 11.5 48t13.5 56t16 47t24 48q44 67 47 143q-73 -24 -127.5 -77t-107.5 -134q-34 -51 -64 -51q-29 0 -65.5 47.5t-36.5 91.5zM659 1038q0 -20 11 -57q59 50 139 147q-78 -2 -114 -23t-36 -67z" />
<glyph unicode="S" horiz-adv-x="835" d="M-41 250q0 74 37 191.5t72 117.5q51 0 101 -69.5t50 -114.5q0 -7 -4 -22t-4 -23q0 -2 1 -12.5t1 -18.5q45 54 59.5 116t14.5 142q0 46 -8.5 139.5t-8.5 139.5q0 148 39 284q27 92 89.5 157.5t156.5 117.5q57 32 84 32q64 0 121 -65.5t87 -152.5t30 -162q0 -92 -34 -155 t-104 -63q-56 0 -91.5 47t-35.5 103q0 25 6 63q-3 0 -8 1t-8 1q-48 0 -77 -87t-29 -166q10 -375 10 -447q0 -91 -16.5 -165.5t-59.5 -127.5t-108 -53q-14 0 -28.5 3t-24.5 6.5t-31 11l-35 12.5q-1 -1 -11.5 -15t-15 -19t-16 -11t-23.5 -6q-47 0 -83.5 28t-56 71t-29 87 t-9.5 84z" />
<glyph unicode="T" horiz-adv-x="925" d="M82 1141q10 21 28.5 64.5t33 74.5t33 64.5t39 52t40.5 21.5q27 1 217 6.5t289 5.5q30 0 92 -11.5t94 -11.5q16 0 46 3t44 3q42 0 133 -27v-139q-49 -14 -182 -50t-209 -58q-17 -70 -50 -142.5t-81.5 -164t-70.5 -138.5q-43 -95 -63 -139t-50 -122t-47 -142 q-9 -32 -24 -71t-23.5 -68t-10.5 -62q-1 -32 -16 -49.5t-39 -17.5q-50 0 -105 64.5t-55 111.5q0 15 7 32q25 67 62 220t69 229q29 70 98.5 217.5t101.5 226.5q-12 12 -44.5 17t-83.5 6.5t-66 3.5q-3 -4 -14 -20t-16 -23.5t-15.5 -21.5t-18 -21.5t-17 -16t-18 -12.5t-16.5 -4 q-16 0 -29 8.5t-25 26.5t-18 30t-16 35q-1 3 -2 5z" />
<glyph unicode="U" horiz-adv-x="1198" d="M0 195q0 41 20 131q88 379 254 735q16 35 41 116.5t50 138.5t55 73q47 -8 77.5 -48t41 -84t10.5 -92q0 -99 -53 -211q-112 -239 -162 -415v-4q0 -1 4 -25q65 57 136.5 138.5t124.5 149t126.5 147t144.5 136.5q40 32 73.5 74t71.5 100.5t60 87.5q20 23 45 23 q49 0 84 -61.5t35 -112.5q0 -37 -22 -91t-44 -92.5t-66 -108.5t-58 -93q-37 -63 -67 -139t-57 -161.5t-42 -123.5q-57 -138 -60 -260q-9 -107 -53 -107q-47 0 -97.5 54.5t-54.5 113.5q-2 24 -3 52t-1.5 62t-1.5 52q0 6 1 21t1 28q-7 -4 -19 -7.5t-15 -6.5q-55 -68 -144 -184 q-57 -73 -152 -147t-139 -74q-37 0 -94 47q-51 81 -51 168z" />
<glyph unicode="V" horiz-adv-x="919" d="M123 1339q0 16 14.5 27.5t30.5 11.5q60 0 125 -73t86 -144q22 -79 22 -141v-14q0 -12 -2 -35.5t-2 -34.5t5 -37t6 -37q13 16 42 52t43 53.5t41.5 49.5t44 48.5t44 42.5t48.5 39.5t49.5 30.5t55 25t57.5 14t64 6q145 0 145 -123q0 -18 -8.5 -36.5t-25 -36t-32.5 -32.5 t-40 -31t-38 -25.5t-36.5 -22.5t-25.5 -15q-90 -55 -164 -161t-150 -253q-4 -7 -14.5 -27t-16.5 -34.5t-10 -28.5q-13 -51 -58 -162t-56 -176q-2 -10 -7.5 -21t-15.5 -25.5t-14 -22.5q-57 17 -99 56.5t-63 89.5t-30 96.5t-9 91.5q0 407 49 741q4 32 4 49q0 40 -26 117.5 t-31 101.5q0 1 -1 3t-1 3z" />
<glyph unicode="W" horiz-adv-x="1511" d="M123 240q0 115 28.5 263.5t57.5 292.5t29 248q0 98 -31 207q-8 24 -8 54q0 75 53 75q51 0 96.5 -62.5t59.5 -129.5q29 -143 49 -385q162 143 286 295q8 9 17 30t14 29q2 4 14.5 24.5t22.5 36t22.5 34.5t22 29.5t14.5 10.5q73 0 120.5 -54t47.5 -116q0 -35 -16.5 -92 t-44.5 -90q-13 -15 -24.5 -36.5t-18.5 -38.5t-17 -44t-16 -41v-2l6 -18q22 13 27 20q37 44 154.5 185.5t183.5 216.5q74 88 138 143.5t146 87.5q14 -22 39 -65.5t39 -65.5q-7 -11 -28.5 -47.5t-30.5 -51.5t-29 -46.5t-33 -50.5t-32 -45.5t-37 -49t-37 -43.5 q-42 -47 -112 -143.5t-105 -136.5q-52 -60 -103.5 -138t-84 -136t-82.5 -154q-45 -82 -62 -166q-6 -27 -26 -42.5t-44 -15.5q-46 0 -89 61.5t-48 123.5q-3 56 -24 162.5t-25 132.5q-22 -15 -38.5 -32t-36.5 -46t-25 -35q-18 -22 -34.5 -46.5t-33.5 -55t-27 -50t-29 -57 t-26 -51.5q-8 -14 -15 -42.5t-18.5 -49.5t-35.5 -33q-70 13 -115 89.5t-45 152.5z" />
<glyph unicode="X" horiz-adv-x="989" d="M-123 129q0 7 1.5 14t5.5 14.5t7 13t10.5 13.5t11 12t13.5 12.5t13 11t14.5 11.5t13.5 11q151 119 206 171q142 135 142 228q0 70 6 204.5t7 153.5q5 35 21 104.5t20 90.5q3 16 8.5 51.5t9 53.5t10.5 47t17 55.5t24 54.5q81 -41 138 -116t57 -152q0 -24 -6 -71t-6 -70 v-13q13 0 22.5 5t13 10t8.5 15t7 13q13 24 41.5 78.5t52 98t50.5 89t49 71.5t36 26q47 0 88 -67t41 -124q0 -31 -12 -61q-17 -37 -56.5 -127t-71 -155t-67.5 -122q-20 -32 -54 -93t-64.5 -109.5t-65.5 -87.5q-53 -58 -53 -146q0 -30 9 -86.5t11 -77.5q2 -35 41 -79t39 -72 q0 -34 -26 -54t-62 -20q-32 0 -66 25.5t-63 67.5t-46.5 72t-33.5 62q-34 -5 -75 -35.5t-75 -63.5t-84.5 -60t-101.5 -27q-54 0 -115 39t-61 90z" />
<glyph unicode="Y" horiz-adv-x="903" d="M41 174q0 31 8 55q13 41 41.5 138.5t46.5 148.5q18 54 30 113t25 142t19 116q2 10 2 33q0 54 -9 164t-9 167q0 22 5 35.5t27 50.5q23 -2 44.5 -15.5t37 -30.5t32.5 -45t27.5 -49t26 -53t23.5 -48q10 -25 10 -35q0 -6 -4 -19.5t-4 -19.5q0 -16 11 -51.5t11 -59.5 q0 -16 -2 -24q46 38 82 75.5t81.5 91t66.5 76.5q4 5 27.5 31.5t35 39l34.5 37.5t38 38t33.5 29t32.5 23t24 7q29 0 55.5 -23.5t42 -56.5t24.5 -65t9 -53q0 -42 -15.5 -76t-39.5 -58.5t-49 -47t-47.5 -51.5t-30.5 -62q-44 -28 -100 -103.5t-76 -95.5q-27 -27 -86.5 -98 t-92.5 -101q-118 -107 -170 -305q-14 -58 -40 -81.5t-103 -55.5q-11 10 -42 35t-47 40.5t-31 42t-15 54.5z" />
<glyph unicode="Z" horiz-adv-x="983" d="M-41 80q0 44 33 70q14 11 21.5 23t15 33t10.5 27q16 37 35 73t48 77.5t47 68t58 75t53.5 65.5t61 72.5t55.5 64.5q44 52 167 191.5t186 218.5q-20 10 -25 10q-63 -11 -103 -20.5t-91.5 -29t-90 -52t-67.5 -78.5q-13 -20 -19.5 -29.5t-21 -21.5t-31.5 -17q-42 10 -64 47 t-22 82q0 28 9.5 57.5t19.5 50t35.5 51.5t35.5 42.5t43 44.5l37 37q25 25 128.5 40t197.5 15q43 0 126 -12.5t118 -14.5q49 -4 74.5 -50t25.5 -99q0 -69 -55 -121q-10 -9 -68.5 -79.5t-103.5 -94.5q-29 -49 -101.5 -122.5t-93.5 -100.5q-24 -31 -145.5 -172t-171.5 -226 q10 -20 30 -20q26 0 79 7t79 7q365 0 365 -166q0 -22 -23 -77q-16 2 -49 2h-64q-27 0 -80 12t-77 12q-40 0 -86 -24q-18 -9 -40 -15.5t-37 -9t-42 -5.5t-39 -5q-27 -4 -80 -14.5t-95.5 -16.5t-78.5 -6q-53 0 -91 30t-38 93z" />
<glyph unicode="[" horiz-adv-x="765" d="M0 41l2 2q27 23 27 70q0 11 -2 34t-2 35q0 55 32 137q17 45 81 208.5t92 236.5t74 199t81 231q11 33 28.5 47t49.5 14q14 0 40.5 -2t39.5 -2q17 0 49 3t49 3q44 0 78 -4.5t65 -16t47.5 -34.5t16.5 -57q0 -35 -14 -61.5t-32.5 -41t-50.5 -24t-55 -13t-59 -6.5 q-83 -5 -105 -96q-37 -150 -69 -246q-13 -35 -42.5 -96t-39.5 -86q-6 -17 -28 -71.5t-31.5 -81t-20.5 -71t-14 -81.5q11 -3 37.5 -9t39 -9t34.5 -10t33 -13.5t26.5 -18.5t22.5 -25t12.5 -32.5t5.5 -42.5q0 -32 -29 -47.5t-67.5 -19t-90 -14.5t-84.5 -31q-34 -21 -82 -17 q-71 0 -108 41.5t-37 118.5z" />
<glyph unicode="\" horiz-adv-x="937" d="M82 1174q0 38 22 72t58 34q16 0 29.5 -8t20 -16t19.5 -27q58 -83 191.5 -268t202.5 -285q131 -191 186 -354q12 -36 45 -170q-4 -33 -8.5 -55.5t-13.5 -47.5t-25.5 -38t-40.5 -13q-48 0 -63 49q-77 263 -256 539q-34 52 -101 162t-122.5 193.5t-114.5 154.5 q-29 29 -29 78z" />
<glyph unicode="]" horiz-adv-x="782" d="M-164 -82q0 86 88 90q109 5 132.5 22.5t37.5 94.5q1 7 2 10.5t2 9.5t2 11q22 117 71 245t98.5 222.5t118 226.5t108.5 221q-19 -1 -76 -5.5t-84 -4.5q-54 0 -85.5 42.5t-31.5 82.5q0 23 14.5 40t45.5 27t57 16t71.5 8t65.5 2.5t62 0.5q49 0 83.5 -3.5t67.5 -13.5 t52.5 -28t31.5 -49t12 -74q0 -51 -37 -114t-85.5 -136.5t-65.5 -134.5q-8 -28 -29 -59q-44 -77 -83 -162t-90.5 -210t-69.5 -167q-8 -17 -19.5 -52t-24 -60t-32.5 -42q10 -74 10 -79q-27 -24 -62.5 -41t-61 -24t-71.5 -17t-65 -15q-20 -4 -29 -4q-43 0 -87 39t-44 84z" />
<glyph unicode="^" horiz-adv-x="808" d="M164 1077q0 39 31.5 80t67.5 67.5t94 66t81 57.5q88 79 135 79q52 0 87.5 -51.5t50.5 -116t35.5 -137t41.5 -100.5q21 -27 21 -59q0 -43 -18 -81t-52 -38q-26 0 -50 14t-39.5 31t-32 49t-23 49.5t-18.5 51.5t-13 38q-3 7 -11.5 27t-14.5 37q-165 -117 -263 -185 q-62 26 -86 53t-24 68z" />
<glyph unicode="_" horiz-adv-x="518" d="M-246 -260q0 33 11 54t33.5 29.5t39.5 10.5t45 2q12 0 34 -2t32 -2v2q365 -42 471 -55q28 -4 47 -8.5t43 -14t36.5 -28t12.5 -43.5q0 -46 -44.5 -71.5t-92.5 -25.5q-196 0 -332 33q-41 8 -92 8h-45h-29q-9 0 -27.5 -1t-27.5 -1q-50 0 -82.5 29t-32.5 84z" />
<glyph unicode="`" horiz-adv-x="479" d="M164 1360q0 38 15.5 60t41.5 22q42 0 105 -71t108 -154.5t45 -122.5q0 -10 -1 -30t-1 -30q-36 -28 -59 -28q-35 0 -97.5 75t-109.5 160.5t-47 118.5z" />
<glyph unicode="a" horiz-adv-x="1118" d="M0 291q0 84 41.5 162t105.5 137.5t154 114.5t172.5 91.5t175.5 69.5q25 9 73.5 19t68.5 16q32 62 44.5 104.5t12.5 92.5q0 17 -4 71q-214 -44 -428 -276q-27 -29 -53 -29h-5q-27 0 -46 22.5t-19 51.5q0 43 38 94.5t100 101t120.5 88.5t120.5 74q68 39 141 39 q87 0 166 -59q57 -102 57 -232v-34v-111q0 -88 -18 -173t-59.5 -213.5t-51.5 -164.5q-19 -67 -51 -192.5t-41 -161.5q-3 0 -31.5 -3.5t-44.5 -4.5q-34 39 -53.5 92.5t-19.5 95.5q0 4 1 13.5t1 13.5q0 48 -23 80q-153 -107 -201 -146q-49 -39 -119.5 -60.5t-136.5 -21.5 q-49 0 -94 41.5t-69.5 96.5t-24.5 100zM203 287q0 -21 8 -37q26 6 56.5 21.5t50.5 29.5t55 39l49 35q16 11 62 40.5t74.5 49.5t63.5 47.5t52.5 51.5t17.5 44v13q-98 -18 -211.5 -72t-195.5 -127.5t-82 -134.5z" />
<glyph unicode="b" horiz-adv-x="1169" d="M-41 135q0 16 5.5 38t16.5 51.5t20 51t24 56t20 47.5q87 215 136.5 344.5t106.5 323.5t83 360q7 45 13.5 133t16.5 157.5t29 119.5q5 13 20.5 34.5t20.5 30.5q41 -19 67 -52t37 -77t14 -77.5t3 -78.5q0 -21 -2 -60t-2 -60q0 -109 18 -199q26 15 67.5 44t66 44.5t61 29 t71.5 13.5q67 0 119.5 -44.5t80.5 -113.5t42 -139t14 -135q0 -75 -18.5 -148t-55 -143.5t-71.5 -127t-88 -137t-84 -134.5q-93 -163 -319 -271q-38 -18 -76 -18q-25 0 -53 11.5t-46 23t-58 40.5t-58 42q-9 -9 -97 -92q-21 3 -56.5 10.5t-47.5 9.5q-41 44 -41 92zM377 453 q0 -27 12.5 -79t16.5 -87q64 39 114 96q168 186 301 399q41 66 72 158.5t31 149.5q0 71 -50 71q-19 0 -39.5 -13t-46 -35.5t-38.5 -31.5q-77 -50 -140 -132t-63 -148q0 -10 3 -31t3 -31q0 -12 -2.5 -27t-5 -24.5t-8 -28t-7.5 -26.5h-90q-25 -38 -44 -90.5t-19 -89.5z" />
<glyph unicode="c" horiz-adv-x="962" d="M41 391q0 164 81 344t201.5 318.5t247.5 210.5q62 32 93 32q23 0 48 -16t42.5 -34t62.5 -68q4 -2 8 -2q9 0 31 24.5t47 24.5q41 0 71 -58t30 -123q0 -49 -22.5 -101t-51.5 -90t-65.5 -90t-55.5 -93q-18 -36 -35.5 -50t-64.5 -34q-82 89 -82 182q0 30 -8.5 59.5t-25.5 70 t-24 63.5q-49 -40 -68 -55.5t-50 -47t-50 -59.5q-114 -167 -182 -430q-2 -8 -2 -29t1 -31.5t6 -21.5t16 -15t30 -4q39 0 106 40.5t132 81t98 40.5q13 0 21 -2q4 -12 30.5 -70.5t26.5 -83.5q0 -38 -20.5 -74t-49.5 -61.5t-74 -52t-79.5 -42t-81.5 -34.5q-19 -8 -47 -8 q-22 0 -65.5 2t-67.5 2q-73 70 -115.5 180.5t-42.5 204.5z" />
<glyph unicode="d" horiz-adv-x="1277" d="M41 442q0 136 44.5 273.5t121 255t171.5 216.5t204 177q88 63 176 63q30 0 56.5 -7t55.5 -25.5t47 -32t56 -46t57 -48.5q0 1 12 17.5t17 27.5q21 62 53.5 126t77 141.5t65.5 119.5q3 7 16.5 35t20.5 39.5t19.5 29.5t25 25.5t27.5 7.5q48 0 83.5 -54.5t35.5 -119.5 q0 -52 -44 -155t-96 -197q-133 -234 -196 -422q-1 -4 -10 -32t-12.5 -37.5t-12 -30.5t-18 -35t-21.5 -27q-16 -16 -20 -51q-8 -50 -38 -138.5t-36 -111.5q-10 -37 -18 -76t-17 -94.5t-12 -73.5q-16 -22 -38 -55.5t-36.5 -55t-33 -43.5t-37 -33t-37.5 -11q-12 0 -21.5 3 t-16.5 6.5t-14 12.5t-10.5 14.5t-9 20t-7.5 21t-8 25.5t-8 26q-3 -1 -15 -5.5t-19 -8.5t-11 -9q-24 -34 -57 -54.5t-90.5 -41t-73.5 -27.5q-6 -4 -22 -4q-61 0 -133 50.5t-107 111.5q-86 141 -86 317zM248 381q0 -174 69 -174q68 0 157.5 44t164.5 103q37 189 131 262 q8 7 13.5 19.5t12 34t9.5 30.5q-135 38 -135 115q0 24 23.5 60.5t71 96t71.5 95.5q12 20 12 39q0 18 -12 39q-56 -6 -104.5 -26t-94.5 -59t-76 -70.5t-80 -88.5q-8 -9 -12 -14q-63 -71 -117 -174q-21 -40 -45.5 -115t-36.5 -104q-22 -51 -22 -113z" />
<glyph unicode="e" horiz-adv-x="952" d="M-41 420q0 23 16 62t19 50q26 11 35 13q27 3 45 7t31 10.5t20 12t12.5 17.5t8 21t7.5 28.5t9 34.5q27 93 62.5 178t84.5 170t114.5 155.5t141.5 116.5q27 15 56 15q28 0 71 -19q109 -49 164 -150t55 -227q0 -199 -184 -346q-12 -10 -45.5 -41.5t-59 -48.5t-57.5 -26 q-37 -11 -107 -36t-85 -30q-15 -23 -15 -61v-29v-16q14 -2 43 -2q70 0 137.5 31t152 90t122.5 79q14 -7 21.5 -16.5t8.5 -16t1 -18.5q-3 -58 -39 -121t-89.5 -114t-107 -90.5t-100.5 -63.5q-53 -27 -100 -27q-96 0 -178 95.5t-95 205.5q-7 3 -60 17.5t-84.5 35.5t-31.5 54z M500 741q18 20 60.5 63t65 68.5t47 71.5t32.5 96q-75 -41 -140 -127t-65 -151v-21z" />
<glyph unicode="f" d="M41 993q3 100 106 142q18 7 74.5 32t95.5 39t80 21q150 28 197 121q58 120 104 202t121.5 177.5t165.5 168.5q43 35 90 35q52 0 94 -44.5t62 -102t20 -107.5q0 -36 -15 -77t-53.5 -79.5t-92.5 -45.5q-25 35 -37 55q-31 -5 -56.5 -26t-42.5 -52t-27.5 -61.5t-17.5 -63.5 q5 -3 28.5 -17t31.5 -20t27.5 -20t27.5 -24.5t19 -26.5t15.5 -34t4.5 -38q0 -16 -9 -30.5t-28 -26.5t-37 -21t-49 -19t-50.5 -15.5t-54 -14t-47.5 -12.5q-53 -14 -86 -61t-43 -107q-16 -69 -69.5 -191.5t-71.5 -183.5q-9 -31 -22 -67.5t-23.5 -62t-28.5 -67.5t-26 -63 q-5 -12 -16 -41t-14.5 -37.5t-13.5 -29.5t-17 -30t-19 -24t-26 -26t-33 -23q-76 0 -129.5 57.5t-53.5 122.5q0 35 23 68q38 49 65 105t58 142t43 115q81 203 104 281q-11 8 -20 8q-29 0 -96 -23.5t-89 -23.5q-40 0 -77 30.5t-62 94.5q-4 16 -4 22z" />
<glyph unicode="g" horiz-adv-x="1058" d="M41 262q0 36 6 70q34 221 91.5 401.5t160.5 343.5q40 63 81.5 118t100 119t123 102t123.5 38q68 0 115.5 -57.5t85.5 -169.5q11 -31 39 -51q92 -74 92 -164q0 -49 -28 -146t-64 -164q-10 -19 -17.5 -60.5t-13.5 -57.5q-37 -100 -101.5 -279t-119 -326.5t-105.5 -277.5 q-43 -108 -121.5 -197.5t-160.5 -89.5q-71 0 -147.5 75t-76.5 163q0 90 48 90q15 0 28.5 -9.5t20.5 -18t22 -33t21 -33.5q80 54 153.5 158t73.5 192q0 4 -1 12.5t-1 12.5q-30 -14 -69.5 -48t-74 -57.5t-67.5 -23.5q-52 0 -117 68.5t-82 148.5q-18 92 -18 151zM256 246 q0 -53 25 -53l2 2q76 47 131 87.5t111.5 94t96 117t62.5 137.5q18 58 57 196q-8 11 -24 32.5t-21 29.5t-13 22t-10.5 26t-2.5 26q0 21 6.5 40t22.5 55t28 70q-49 -21 -87 -47t-66.5 -58.5t-50.5 -64t-50 -75.5q-9 -15 -14 -23q-8 -12 -28.5 -42.5t-31.5 -47.5t-24.5 -43 t-20.5 -47q-14 -43 -28 -96.5t-21.5 -88t-21.5 -102t-19 -92.5q-8 -36 -8 -55z" />
<glyph unicode="h" horiz-adv-x="1085" d="M20 285q0 31 9 61q5 22 22.5 99.5t32 127t33.5 97.5q42 101 84 217.5t92.5 263t77.5 221.5q86 242 129 506q54 23 71 23q33 0 69 -51.5t57.5 -114t21.5 -101.5q0 -28 -18.5 -103t-18.5 -116q0 -8 2.5 -26t3.5 -25q17 7 61 28.5t70.5 30.5t50.5 9q60 0 134 -50 q6 -5 30.5 -62t24.5 -67q6 -58 6 -114q0 -105 -22 -210.5t-63 -209t-81 -188.5t-96.5 -199t-89.5 -191q-42 -96 -121 -151q-50 20 -71 45.5t-21 77.5q0 58 19.5 128t36.5 109.5t60 127t52 106.5q121 267 178 538v4q0 5 -4 17q-59 -16 -108.5 -49.5t-83 -72t-64 -92 t-50 -98.5t-43.5 -104q-4 -11 -6 -16q-14 -35 -56.5 -118t-57.5 -130q-17 -54 -55.5 -141.5t-63.5 -160t-27 -132.5q-1 -9 -5.5 -18.5t-12.5 -23t-12 -20.5q-21 3 -38 9t-29 12t-23.5 20t-17.5 21.5t-14 28t-11 29.5t-10.5 35.5t-10.5 35.5q-23 82 -23 127z" />
<glyph unicode="i" horiz-adv-x="675" d="M20 186q6 67 22.5 139t32 124t49 133.5t50 119t60.5 130t57 120.5q5 12 34.5 84.5t51.5 108.5q8 15 14.5 48t7.5 38q10 41 32 62.5t50 21.5q58 0 104 -62.5t46 -136.5q0 -34 -13 -78q-106 -358 -233 -598q-93 -179 -147 -383q-22 -82 -70 -82q-33 0 -68 36t-63 93 q-4 8 -17 82zM559 1544q0 60 23 126.5t63.5 145.5t50.5 105q16 45 80 45q22 0 38 -6.5t26.5 -24t15.5 -28t12.5 -39.5t10.5 -37q2 -12 2 -33q0 -63 -38.5 -155t-90.5 -160t-88 -68q-38 0 -71.5 42t-33.5 87z" />
<glyph unicode="j" horiz-adv-x="657" d="M-369 -369q0 38 27 62q4 0 10.5 1t9.5 1q13 0 36 -9.5t32 -9.5q47 0 99.5 57t90 131.5t58.5 145.5q22 78 80.5 247t83.5 263q123 464 282 762q1 3 8.5 16.5t10 18.5t10 18t11.5 19t11.5 16t13 15t12.5 11t14 8.5t14 2.5q42 0 77.5 -39.5t51.5 -83t16 -70.5 q0 -72 -64.5 -274t-156 -456t-119.5 -347q-19 -61 -55.5 -174t-52.5 -164q-28 -89 -78 -177.5t-120.5 -154t-135.5 -65.5q-94 0 -185.5 78t-91.5 151zM543 1745q0 19 11 52.5t31.5 84t26.5 66.5q3 9 62 149q14 4 80 17q60 -74 84 -118t24 -100q0 -83 -53.5 -200t-106.5 -146 q-68 30 -113.5 79.5t-45.5 115.5z" />
<glyph unicode="k" horiz-adv-x="925" d="M41 778q0 54 61 66q82 14 131 62.5t84 133.5q153 378 428 824q27 47 76 47q46 0 81.5 -67.5t35.5 -131.5q0 -42 -16 -78q-133 -295 -191 -403q87 35 129 115q17 32 64 32q84 0 84 -135q0 -62 -40.5 -133.5t-104 -132.5t-138.5 -112t-147 -81q-42 -17 -65.5 -46t-23.5 -62 q0 -26 27 -68q152 -213 188 -518v-12q0 -61 -59 -103q-39 7 -67.5 31.5t-45 62.5t-26 71.5t-18.5 80t-15 66.5q-16 58 -74 143l-9.5 -9.5t-9.5 -9t-6.5 -7.5t-4.5 -9q-17 -52 -105 -317q-7 -24 -22.5 -43t-36.5 -19q-7 0 -21 7q-121 64 -121 184q1 30 5.5 64.5t9 61t14.5 67 t15 59.5t17 62t15 54q-9 17 -40.5 66.5t-44.5 79.5t-13 57z" />
<glyph unicode="l" horiz-adv-x="641" d="M41 324q0 68 13.5 148t27.5 132t41 144q90 304 193 541.5t259 441.5q22 27 62 60.5t61 33.5q34 0 70.5 -37.5t36.5 -77.5q0 -98 -51 -192q-75 -137 -134 -291.5t-124.5 -364t-100.5 -305.5q-94 -270 -108 -457q-5 -53 -10 -68.5t-33 -58.5q-137 27 -164 142 q-2 9 -10.5 40t-11.5 44t-8 38t-7 45.5t-2 41.5z" />
<glyph unicode="m" horiz-adv-x="1708" d="M20 104q0 6 5 31q15 100 50 222.5t56.5 183.5t77.5 215q127 355 168 530q4 23 20 36t37 13q23 0 42 -8t32 -25t22 -33.5t16.5 -44.5t11 -45.5t8.5 -48.5t7 -43q6 -6 13 -6q5 0 10.5 3t12 8.5t9.5 7.5q178 112 379 190q15 6 29 6q34 0 59.5 -30.5t37.5 -66.5t27 -66.5 t30 -30.5q18 0 26 4q27 10 114.5 47.5t145 54.5t107.5 17q53 0 84 -14t31 -54q0 -22 -15 -37q-37 -42 -41 -121q-2 -43 -15.5 -87t-35.5 -95.5t-31 -81.5q-29 -94 -79 -206t-114 -242.5t-95 -202.5q-31 -70 -49 -89q-18 -17 -37 -18q-56 0 -83.5 54.5t-27.5 113.5 q0 65 22 149.5t56 156.5q25 55 61 142.5t71 164t81 157.5q-64 -12 -127 -43t-93 -52.5t-99 -77.5l-6 -4.5t-5 -4t-6 -4.5q-30 -30 -57.5 -83t-54.5 -122.5t-38 -91.5q-57 -101 -96 -248q-18 -67 -57 -67q-65 0 -99 57t-34 123q0 62 20 121q19 59 44.5 127t43.5 114t51 126.5 t48 119.5q-12 6 -23 6q-9 0 -28 -10.5t-52.5 -35t-52 -38.5t-61.5 -48t-46 -36q-49 -39 -79 -118q-14 -36 -39.5 -110t-45 -124.5t-48 -113.5t-64 -115t-76.5 -90q-14 -13 -25 -34t-20.5 -31.5t-28.5 -10.5q-29 0 -55.5 35.5t-26.5 72.5z" />
<glyph unicode="n" horiz-adv-x="1114" d="M41 297q0 39 6 80q33 201 68 347t94 280q16 36 45.5 85.5t72 107.5t94 97t97.5 39q32 0 57 -19.5t25 -45.5q0 -32 -34 -89t-34 -81v-29q52 12 58 16q18 10 63 36t68 39t60.5 32.5t72 35t72.5 29.5q20 5 26 5q39 0 73 -39t51.5 -88.5t17.5 -90.5q0 -50 -19 -92 q-164 -379 -227 -544q-68 -174 -72 -279q-3 -55 -22 -91t-45 -36q-46 0 -82 42t-53 96.5t-17 105.5q0 28 3 57t10 64t12 58.5t18 65.5t18 58.5t20.5 64t18.5 56.5q9 30 25 64t37.5 74.5t30.5 59.5l-15 15q-53 -26 -108.5 -64t-127.5 -93.5t-102 -76.5q-57 -40 -63 -112 q-4 -51 -27.5 -196.5t-23.5 -225.5v-21q0 -35 -17 -57.5t-45 -22.5q-8 0 -20 4q-81 33 -120.5 111t-39.5 168z" />
<glyph unicode="o" horiz-adv-x="1062" d="M41 344q0 278 150 512t432 438q56 41 116 41q14 0 32 -3t32 -6.5t38 -11t35 -11.5t38 -14.5t34 -12.5q74 -104 74 -242q0 -159 -50 -332t-141 -315q-16 -25 -35.5 -51t-47 -59.5t-39.5 -49.5q-4 -4 -17.5 -14.5t-15.5 -17.5q-30 -77 -138.5 -132t-189.5 -55 q-75 0 -135.5 32.5t-97 83t-55.5 108t-19 112.5zM250 358q0 -89 35 -157q70 18 132 51t109 71.5t88.5 93.5t70 102.5t54.5 113.5t40.5 111t30 110.5t21.5 97t15 84.5q4 24 4 37q0 57 -57 82q-23 -5 -25 -6q-126 -75 -193 -180.5t-94 -241.5q0 -2 -1 -5t-1 -5 q0 -18 6.5 -44.5t16 -58.5t12.5 -47q-55 -28 -82 -28q-12 0 -26.5 8t-24 15t-30 25.5t-27.5 24.5q-74 -115 -74 -254z" />
<glyph unicode="p" horiz-adv-x="1036" d="M-164 -494q0 47 27 99q15 31 28 63.5t24.5 71.5t18.5 63.5t19.5 73.5t17.5 68q11 47 38 129.5t36 113.5q14 52 39 156.5t47.5 185.5t50.5 152q7 20 21 86q-11 1 -30.5 2t-33.5 3t-24 7q-26 13 -43 46t-17 67q0 46 31 101t72 96q19 19 68 57t77.5 68t28.5 55q0 8 -4 28 q44 28 129.5 39.5t111.5 20.5q43 14 93 14q33 0 62 -6t49.5 -14t40.5 -25t32 -29t27 -36.5t21.5 -37t20.5 -42t19 -39.5q61 -131 61 -279q0 -187 -69 -397q-23 -72 -70.5 -149t-108.5 -143.5t-138.5 -109t-151.5 -42.5q-112 0 -205 96q1 -3 -18.5 -52.5t-41.5 -102 t-24 -60.5q-24 -53 -68 -197q-5 -15 -18 -56t-21 -65t-24 -59.5t-32 -55.5t-39 -35.5t-50 -15.5q-29 0 -54.5 28.5t-25.5 57.5zM457 303q8 0 18.5 -1t13.5 -1q9 0 11 2q111 59 170 156q139 225 139 495q0 156 -80 156q-28 0 -52.5 -5t-43 -13t-35.5 -22.5t-29.5 -28.5 t-24.5 -36.5t-20 -40t-17.5 -46t-15.5 -48t-16 -52.5t-16 -54q139 -35 139 -139q0 -36 -18 -77t-41 -74t-47.5 -80.5t-34.5 -90.5z" />
<glyph unicode="q" horiz-adv-x="1060" d="M41 385q0 73 10 156t21 125q27 97 73 200.5t111 204t138 180t160.5 128t172.5 48.5q94 0 162 -65q12 -11 26 -25q16 -16 22 -16h3q94 -3 128 -47t34 -168q0 -59 -25 -113q-111 -222 -222.5 -514t-175 -489.5t-167.5 -534.5q-87 10 -122.5 60.5t-35.5 134.5q0 40 6 84 q5 36 29.5 154t24.5 169q0 5 -1 15.5t-1 15.5q0 -22 -25 -22q-55 0 -181 71t-145 109q-20 39 -20 139zM260 426q0 -40 12 -68q57 10 66 15q123 76 158 102q40 30 94.5 118.5t54.5 139.5q0 21 -19 42t-38 44t-19 49q0 48 29 121q6 14 21.5 41t27.5 48.5t12 29.5q0 10 -8 18 q-86 -42 -157 -151q-234 -353 -234 -549z" />
<glyph unicode="r" horiz-adv-x="983" d="M0 182q0 39 6 81t19.5 90.5t23.5 80.5t30 88.5t27 77.5q41 122 125.5 345.5t116.5 314.5q19 55 64 55q20 -1 36 -9.5t26.5 -18.5t21.5 -30t16 -32.5t14.5 -39t14.5 -38.5q18 13 57 42.5t62.5 46t55 31.5t54.5 15q16 0 61.5 -13.5t83.5 -13.5q58 0 104 -93.5t46 -174.5 q0 -69 -29.5 -150.5t-83 -141.5t-110.5 -60q-46 0 -79.5 42t-33.5 97q0 28 34.5 86t39.5 96q-114 -36 -162 -90q-11 -12 -62.5 -68.5t-68 -75.5t-57 -68.5t-60.5 -81t-46 -78t-44 -91.5q-17 -44 -43.5 -132t-53 -154t-63.5 -115q-62 6 -102.5 63t-40.5 117z" />
<glyph unicode="s" d="M-41 182q0 73 29 176t76 183t90 80q25 -1 44.5 -13t31.5 -26.5t23 -42t16.5 -47t14 -54.5t13.5 -51q2 -2 8 -2q22 0 41 35.5t19 68.5q0 72 -37 208.5t-37 193.5q0 162 115 350q36 26 59.5 41t59 30t69.5 19q7 1 31.5 2.5t35.5 3t30 6t34 11.5q16 8 39 8q53 0 111.5 -51 t64.5 -115q2 -23 13.5 -75.5t11.5 -80.5q0 -40 -20 -107t-50 -132.5t-72 -113.5t-80 -48q-14 0 -28.5 7t-32 24.5t-27.5 29t-31.5 38t-27.5 34.5q30 118 45 162q6 18 31 64t28 75q-20 17 -36 17q-17 0 -27 -13q-115 -138 -115 -276q0 -55 34 -184.5t34 -198.5 q0 -48 -3.5 -85.5t-16.5 -83.5t-35.5 -75.5t-65 -50.5t-100.5 -21q-62 0 -136 33q-12 -32 -36.5 -94t-36.5 -94q-79 7 -140 87t-61 148z" />
<glyph unicode="t" horiz-adv-x="753" d="M41 176q0 38 5 77t17 99t13 66q18 107 55.5 208.5t99.5 236t91 208.5q-83 6 -114.5 21t-57.5 69q-13 26 -13 45q0 50 53 70q29 11 83.5 37.5t100.5 44t91 22.5q42 5 70 62q21 44 52 94.5t51 80t64 91.5t58 82q2 2 12 16.5t14 19.5t13.5 17t15.5 17.5t15 12.5t16.5 10 t15.5 3q42 0 69 -48t27 -95q0 -29 -17 -72.5t-35 -75.5t-52.5 -89t-46.5 -79q52 -41 72 -65.5t20 -54.5q0 -40 -32.5 -62.5t-74.5 -30t-91 -24.5t-72 -45q-20 -23 -35 -56t-29 -73.5t-24 -61.5q-14 -31 -52 -110.5t-56 -119.5t-46 -105t-48.5 -122t-37.5 -116q-2 -5 -12 -31 t-16.5 -48.5t-6.5 -39.5q0 -35 33 -35q27 0 88 35t70 37q37 -21 37 -53q0 -13 -2 -19q-25 -102 -113.5 -177t-190.5 -75q-70 0 -108.5 58t-38.5 143z" />
<glyph unicode="u" horiz-adv-x="1300" d="M41 170q0 159 70 365q112 341 260 616q12 21 24 70.5t28.5 78.5t49.5 29q34 0 61 -38t38.5 -84t11.5 -85q0 -43 -19.5 -97.5t-60 -138t-51.5 -110.5q-8 -12 -13.5 -29.5t-11 -42t-8.5 -34.5q-10 -31 -32 -86t-42 -111q278 243 531 440q54 41 99.5 101t93.5 136.5 t83 119.5q15 18 37 18q40 0 75 -56.5t35 -111.5q0 -12 -4 -28q-25 -78 -103.5 -254.5t-102.5 -274.5q-12 -47 -34 -107.5t-40 -103t-50 -115t-44 -100.5q-27 -61 -70 -61q-39 0 -70.5 55.5t-31.5 120.5q0 12 1 36t1 38q0 62 -9 112q-43 -19 -47 -22q-83 -73 -231.5 -224.5 t-222.5 -218.5q-29 -26 -62 -26q-55 0 -97 74.5t-42 148.5z" />
<glyph unicode="v" horiz-adv-x="862" d="M82 182q0 27 4 43q27 149 64 475q6 57 8 162.5t4 143.5q0 2 2 39.5t4.5 56.5t8 51t17 53t27.5 33q15 12 35 12q75 0 104 -202q1 -8 2.5 -80t5.5 -135.5t11 -63.5q11 0 27 11.5t26.5 22.5t26 30t16.5 20q16 19 51 62.5t56 68t57.5 59.5t67 53.5t73.5 33t88 14.5 q43 0 80 -31.5t37 -85.5q0 -43 -25.5 -75.5t-76.5 -69.5t-70 -56q-11 -11 -103.5 -97t-134.5 -138q-107 -135 -177 -260.5t-101 -265.5q-8 -32 -29 -52t-53 -20q-49 0 -91 63t-42 125z" />
<glyph unicode="w" horiz-adv-x="1562" d="M82 143q0 53 8 78q15 44 28 99.5t18 85.5t16.5 106.5t13.5 91.5q1 7 7.5 87t16.5 168.5t25.5 183t40 156t53.5 61.5q44 0 75 -48t44 -122.5t18 -132t5 -107.5q0 -89 -21 -107q23 22 80 69t150.5 119t185 123.5t141.5 51.5q53 0 53 -64q0 -35 -38.5 -139t-38.5 -164 q38 32 102 87t116.5 99t100.5 79q1 1 35.5 28t58.5 44.5t67.5 47t76.5 47.5t70.5 32t64.5 14q53 0 67 -54q4 -12 4 -49q-2 -43 -22 -83t-58.5 -78t-65.5 -60.5t-74 -56.5q-10 -7 -15 -11q-66 -49 -109.5 -81.5t-104.5 -82.5t-103 -90.5t-92 -96t-85 -108t-68.5 -117 t-56.5 -132.5q-22 -74 -63 -74q-6 0 -18 4q-148 59 -148 318q0 16 2 45t2 43q0 5 0.5 17.5t0.5 18.5t-2 14t-8 11.5t-15 3.5q-13 0 -31 -18q-13 -15 -54.5 -63t-60 -71.5t-49.5 -64t-51.5 -78t-36.5 -76.5q-6 -13 -16.5 -48t-19 -57.5t-25 -42t-37.5 -19.5 q-49 0 -104.5 52.5t-55.5 110.5z" />
<glyph unicode="x" horiz-adv-x="995" d="M-82 41q0 33 82.5 137.5t151.5 179t106 111.5q64 64 64 152q0 38 -7.5 113.5t-7.5 113.5q0 225 72 475q6 38 20 55t43 17q55 0 96.5 -68t41.5 -129q0 -36 -3.5 -78t-7.5 -70.5t-13 -85.5t-13 -87q19 15 34 30.5t27.5 33.5t19 28t18.5 31.5t15 27.5q7 12 35.5 65.5t45 81 t42.5 66.5t48.5 57.5t41.5 18.5q15 0 28.5 -6t22.5 -12t21 -23t17 -24.5t18.5 -31t17.5 -30.5q-14 -30 -50 -114.5t-64.5 -141t-63.5 -105.5q-9 -14 -20 -40t-13 -31q-6 -12 -27 -52.5t-31.5 -58.5t-31.5 -45.5t-43 -46.5q-23 -19 -39 -55t-16 -60q0 -41 23 -69.5t51 -28.5 q23 0 65.5 28.5t63.5 28.5q37 0 37 -39q0 -58 -61.5 -120t-100.5 -62q-65 0 -111 16.5t-76 63.5q-3 5 -7 8.5t-11 9t-12 9.5q-102 -98 -150 -146q-4 -4 -32.5 -33.5t-39.5 -39.5t-35.5 -27t-47.5 -27q-10 -5 -28 -21.5t-22 -19.5q-46 -37 -79 -37q-35 0 -70 35t-35 72z" />
<glyph unicode="y" horiz-adv-x="1032" d="M-369 -348q0 67 35 67q9 0 27.5 -4t27.5 -4q95 0 254.5 113.5t292.5 277.5q-1 1 -17.5 44t-31.5 59q-50 54 -64 116t-14 154q0 237 62 418q49 146 80 348q5 28 12 54t19 56t31.5 48t43.5 18q45 0 78 -49t47 -112t14 -126q0 -6 -1 -17.5t-1 -16.5q-11 -100 -48 -228 t-67 -248t-30 -225q0 -55 8 -102q34 13 65 45.5t53.5 71t46 92.5t37 94.5l31 93t25.5 74.5q20 55 64.5 222t52.5 192q3 13 9.5 44.5t12 52.5t16.5 45.5t29 37t43 12.5q22 0 41.5 -28t31 -66t18 -70.5t6.5 -46.5q0 -27 -42 -210.5t-75 -293.5q-55 -183 -115 -307 q-5 -11 -24.5 -52.5t-26.5 -55.5l-25 -50t-28.5 -53.5t-29.5 -48t-34.5 -50.5t-36 -44t-42.5 -45q-6 -6 -28.5 -27.5t-31 -30l-27.5 -27.5t-30 -31t-26 -29t-27 -33q-88 -112 -235 -201.5t-263 -89.5q-66 0 -129.5 55t-63.5 117z" />
<glyph unicode="z" horiz-adv-x="1034" d="M-20 186q0 36 13 75t41.5 84.5t48.5 73t58 77.5q98 126 158 200t153.5 176.5t182.5 184.5q58 51 90 104q-26 13 -57 13q-36 0 -108.5 -9.5t-108.5 -9.5q-15 0 -42 1t-42 1q-23 -37 -66 -101.5t-61 -92.5q-15 17 -22.5 33.5t-9 23.5t-0.5 29.5t1 27.5q0 70 20 111 q8 18 13.5 77.5t7.5 71.5q56 35 129 35q95 0 288 -3t312 -3q3 -4 12 -17t12.5 -18t11.5 -17t11 -19t9 -18.5t8.5 -20.5t6 -21t4.5 -24t1 -25q0 -85 -45 -125q-27 -25 -88.5 -92t-100.5 -99q-128 -103 -249 -243.5t-214 -286.5q20 -16 21 -16h22q188 0 408 -134 q39 -23 39 -53q0 -38 -41.5 -70t-79.5 -32q-30 0 -95.5 12t-99.5 12q-169 0 -227 -41t-164 -41q-70 0 -115.5 60t-45.5 149z" />
<glyph unicode="{" horiz-adv-x="755" d="M82 551q0 25 28.5 50.5t73.5 54.5t64 49q88 90 153 319q28 98 117 188.5t172 90.5q79 0 134 -69.5t55 -146.5q0 -9 -5 -49q-9 -1 -18 -3.5t-12 -2.5h-19q-77 0 -129 -39.5t-80 -104t-48.5 -132.5t-49.5 -139t-67 -109q18 -58 18 -115q0 -76 -39 -209q15 -6 29 -6 q15 0 44.5 11.5t47.5 11.5t29.5 -29.5t11.5 -58.5q0 -85 -61.5 -150t-141.5 -65q-19 0 -59.5 19t-84 54.5t-55.5 73.5q-30 88 -30 141q0 18 4 38t8.5 35t14 42t14.5 45q-75 54 -97 92.5t-22 112.5z" />
<glyph unicode="|" horiz-adv-x="579" d="M41 223q0 65 33 201q72 298 266 885h20q64 0 121.5 -64t57.5 -147q0 -30 -15 -68q-30 -74 -59 -168t-46 -162t-45 -185t-42 -171q-45 -176 -56 -238q-6 -35 -31 -62.5t-57 -27.5q-18 0 -38.5 14.5t-53.5 47.5l-39 39q-16 47 -16 106z" />
<glyph unicode="}" horiz-adv-x="776" d="M-123 29q0 32 17 88q27 -3 67.5 -12t52.5 -9q28 0 54.5 12.5t47 30.5t41 49t34.5 58t31 68.5t26.5 68.5t24.5 70.5t22 62.5q4 20 4 31q0 21 -5 64t-5 65q0 42 8.5 89.5t19 82t28.5 92.5t28 92q-85 25 -129.5 67.5t-44.5 125.5q72 61 180 61q76 0 127 -20.5t82 -79.5 q35 -76 35 -117q0 -17 -7 -45q-15 -55 -38 -159t-33 -144q79 -46 102 -69q47 -46 47 -111q0 -28 -17 -53.5t-48 -38.5q-39 -17 -67.5 -42t-48 -59t-32 -63.5t-29.5 -76t-30 -75.5q-5 -11 -19.5 -48t-26.5 -59t-28 -40q-44 -48 -115 -84.5t-127 -36.5q-86 0 -157.5 46.5 t-71.5 117.5z" />
<glyph unicode="~" horiz-adv-x="747" d="M0 559q0 65 75 131t148 66q42 0 109 -41t80 -41q24 0 55 21.5t84 72.5t65 61q11 11 27 11q23 0 38 -26t20.5 -55.5t5.5 -56.5q0 -65 -52 -123t-151 -118q-42 -25 -72 -25t-94.5 51.5t-85.5 51.5q-27 0 -60 -19.5t-129 -87.5q-63 72 -63 127z" />
<glyph unicode="&#xa2;" horiz-adv-x="966" d="M82 446q0 183 115 381t286 314q18 12 160 119q0 28 9.5 59.5t19.5 51.5t30.5 56t28.5 52q125 239 184 239q37 0 65 -52t28 -101q0 -47 -32.5 -115t-35.5 -92q-3 -20 -29.5 -37t-27.5 -33q-1 -7 -5.5 -17.5t-5.5 -13.5q7 -20 23.5 -61t25.5 -64.5t17 -57t8 -60.5 q0 -72 -47.5 -154t-107.5 -82q-99 0 -99 217q-24 -10 -48.5 -25.5t-38 -25.5t-40.5 -32.5t-35 -28.5q-111 -86 -176 -207t-102 -277q-2 -8 -2 -20q0 -62 92 -62q69 0 176.5 47.5t161.5 53.5q20 -33 20 -64q0 -118 -260 -235q-3 -72 -26.5 -140.5t-67.5 -154.5t-59 -123 q-21 -8 -45 -8q-52 0 -78.5 37.5t-26.5 91.5q0 48 12 102t22 81.5t38 103.5q-5 17 -8 20q-119 145 -119 317z" />
<glyph unicode="&#xa3;" horiz-adv-x="931" d="M0 156q0 57 63 120q75 72 154 187q-6 14 -16.5 18t-23.5 3.5t-19 2.5q-66 31 -97.5 62t-31.5 74q-1 53 45.5 80t140.5 47q7 1 19 4q102 20 129 36q32 19 59 76q9 20 31 73q53 127 100 226q38 77 106.5 149t124.5 72q77 0 132 -48.5t83 -120.5q15 -50 15 -103 q0 -180 -96 -180q-32 0 -60.5 49.5t-28.5 91.5q0 21 2 33q-31 -27 -55.5 -55.5t-44.5 -64.5t-30 -57.5t-29 -67.5t-25 -60q11 -8 37.5 -25t40.5 -27.5t32 -26t26 -31t8 -31.5q0 -34 -37.5 -72.5t-79.5 -38.5h-15q-105 0 -133 -25t-88 -168q-8 -18 -12.5 -28.5t-12 -29 t-14.5 -34.5q13 -4 38 -12.5t38 -11.5q7 -1 39 -7t49.5 -10t49 -12t50 -18t39 -24t30 -33t9.5 -42q0 -31 -25.5 -55.5t-66.5 -24.5q-29 0 -83.5 7.5t-80.5 7.5q-21 0 -67 -4q-37 4 -174.5 8t-208.5 22q-22 26 -28.5 45t-6.5 54z" />
<glyph unicode="&#xa5;" horiz-adv-x="956" d="M0 393q0 32 33 54t75.5 31.5t90.5 24.5t69 34q33 189 33 436q0 53 -15.5 137.5t-15.5 130.5q0 68 49 68q31 0 57.5 -18t45.5 -52t34.5 -71t26 -88t17.5 -88.5t12 -87.5t6.5 -70t3.5 -50q17 3 31.5 14.5t19 18t15.5 25.5q69 116 161.5 217.5t172.5 124.5q75 -78 75 -152 q0 -45 -39 -107t-117.5 -156t-97.5 -120q-16 -22 -49.5 -71.5t-54.5 -78.5t-54 -60.5t-65 -45.5q-7 -4 -13 -12t-13 -21.5t-13 -21.5q9 -4 34.5 -14t38 -15.5t24.5 -18t12 -26.5q0 -25 -10 -44t-25.5 -30.5t-38 -20.5t-43 -14t-46.5 -10q-7 -1 -11 -2q-8 -13 -21.5 -40.5 t-22.5 -44t-29.5 -34.5t-47.5 -26q-25 0 -48.5 11t-33.5 30q-15 25 -44 45t-54 31t-47 33.5t-27 54.5q12 30 38 44.5t51 16.5t51.5 15.5t39.5 42.5q-18 -3 -39 -7.5t-34.5 -7t-24.5 -2.5q-37 0 -80 28t-43 60z" />
<glyph unicode="&#xa8;" horiz-adv-x="937" d="M164 1165q0 37 23.5 78t73 99t54.5 65q22 31 88 31q24 0 40 -8t21.5 -15t15.5 -28.5t14 -28.5v-15q0 -40 -41.5 -99.5t-98 -104.5t-94.5 -45q-35 0 -65.5 22.5t-30.5 48.5zM608 1149q0 37 26.5 81t69.5 93.5t54 65.5q19 30 88 30q20 0 34 -4t23.5 -14.5t13.5 -16t11 -24 t8 -21.5q0 -3 1 -8.5t1 -7.5q0 -59 -87 -153.5t-149 -94.5q-35 0 -64.5 23t-29.5 51z" />
<glyph unicode="&#xa9;" horiz-adv-x="1564" d="M123 662q4 22 10 75.5t14 102.5t21 92q38 128 148.5 248.5t255 195t276.5 74.5q104 0 220.5 -49t178.5 -133q18 -22 49 -47q60 -46 103 -132.5t43 -152.5q0 -42 -19 -130t-22 -128q-10 -108 -54 -205.5t-120 -214.5q-12 -19 -31 -31q-31 -19 -79.5 -60.5t-90.5 -72.5 t-74 -39q-178 -57 -247 -57q-30 0 -46 8q-73 30 -107 44t-91.5 43.5t-100.5 60.5q-122 86 -178 210t-59 298zM315 520q0 -66 38.5 -119t98.5 -84.5t126.5 -48t128.5 -16.5q1 0 2 1.5t2 3.5t2 3q0 13 -23 21q-52 10 -93 46.5t-64 86.5t-34.5 103t-11.5 104q0 128 60 249.5 t160 208.5q44 38 84 80q-32 4 -37 4h-6q-145 -49 -260 -162.5t-152 -257.5q-21 -84 -21 -223zM674 581q0 -15 1 -23.5t8.5 -18t21.5 -9.5q52 0 132.5 45t120.5 52q3 -6 9 -15.5t8.5 -14.5t5.5 -12.5t4.5 -16t1.5 -19.5q0 -44 -26 -84.5t-76 -92t-70 -79.5q217 17 363 332 q21 47 35 102.5t27.5 124t23.5 106.5q2 8 2 23q0 35 -47 79.5t-97 73.5t-67 29q-16 0 -18 -6q-1 -3 -1 -6q0 -6 2 -8q43 -85 43 -162q0 -109 -110 -219q-26 -23 -47 -23q-14 0 -31 12t-28 23.5t-30.5 35.5t-25.5 30q-52 -37 -66 -56.5t-45 -99.5q-24 -66 -24 -100v-3z" />
<glyph unicode="&#xab;" horiz-adv-x="1435" d="M0 334q0 119 86 172q43 27 157.5 96.5t176.5 108.5q33 21 179.5 100.5t217.5 136.5q28 21 49 21q36 0 60 -60t24 -116q0 -39 -54 -87.5t-122 -89.5q-57 -36 -120 -73.5t-144 -85t-123 -72.5q-2 -4 -2 -8q0 -7 20.5 -18t62.5 -26.5t71 -25.5t82 -27.5t59 -19.5 q94 -31 94 -76q0 -36 -25 -63.5t-63 -41.5t-73.5 -21t-65.5 -7q-66 0 -201.5 37.5t-200.5 40.5q-56 0 -100.5 68t-44.5 137zM774 379q0 92 60 137q50 37 485 340q26 16 45 16q31 0 51.5 -33t20.5 -75t-23 -83.5t-63.5 -77.5t-81 -65t-90.5 -63.5t-76 -56.5q21 -14 65 -40 t67.5 -42t52 -38t41.5 -42t13 -41q0 -39 -48 -63.5t-105 -24.5q-68 0 -181 36.5t-173 80.5q-60 45 -60 135z" />
<glyph unicode="&#xad;" horiz-adv-x="845" d="M0 586q0 54 32.5 83t82.5 29q9 0 27.5 -1t27.5 -1h29h45q46 0 92 9q132 32 332 32q48 0 92.5 -25t44.5 -71q0 -25 -12.5 -43.5t-36.5 -28t-43 -14t-47 -8.5q-106 -13 -471 -55v2q-10 0 -32 -2.5t-34 -2.5q-22 0 -36 1t-33.5 6t-31 15t-20 29t-8.5 46z" />
<glyph unicode="&#xae;" horiz-adv-x="1726" d="M123 655q0 157 72 308.5t190 263.5t277.5 181t324.5 69q137 0 264 -62.5t201 -177.5q150 -232 152 -403v-31q-4 -188 -77.5 -352.5t-218 -288.5t-339.5 -176q-27 -9 -56 -9q-8 0 -23.5 1.5t-23.5 1.5q-26 0 -79 -7.5t-80 -7.5q-122 0 -233.5 65t-186.5 166.5t-119.5 223 t-44.5 235.5zM293 590q0 -89 34.5 -160.5t87 -115.5t121 -73.5t132 -41t123.5 -11.5q136 0 309 84q88 34 169 123.5t127 189t46 175.5q0 23 -2 35q-14 -9 -34 -28t-36 -29.5t-35 -10.5h-6q-58 36 -70.5 53t-31.5 84q90 165 90 219q0 51 -102 86t-201 35q-96 0 -196.5 -23 t-178.5 -71q-87 -53 -175.5 -140t-113.5 -151q-57 -145 -57 -229zM573 815q0 38 31.5 77.5t74 69t94 56t83 39t49.5 18.5q24 6 43 6q44 0 83.5 -43t39.5 -94q0 -33 -12.5 -60.5t-38 -50t-47 -37t-57 -35t-50.5 -30.5q-4 -24 -4 -35q0 -47 13.5 -93t39.5 -46q20 0 70.5 23.5 t56.5 23.5q10 0 17.5 -11.5t7.5 -21.5q0 -7 -3 -14.5t-7.5 -14.5t-12.5 -15.5t-15 -14.5t-17.5 -14.5t-18 -13.5t-18.5 -12t-16 -10.5t-14.5 -9t-10.5 -6.5q-15 1 -29 6t-24 9.5t-21 15t-16.5 16t-15 21t-12.5 20.5t-13 23.5t-12 22.5q-9 -16 -19.5 -57t-22 -69t-28.5 -28 q-20 0 -36.5 28t-16.5 52q0 70 26 169.5t43 129.5q21 31 21 65q-22 -12 -53.5 -42t-54.5 -54t-29 -24q-14 0 -31 22.5t-17 42.5zM895 907q0 -8 4 -24q6 6 18.5 17.5t22.5 22.5t25 29q-70 -3 -70 -45z" />
<glyph unicode="&#xb4;" horiz-adv-x="479" d="M164 1094q0 39 45 122.5t108 154.5t105 71q26 0 41.5 -22t15.5 -60q0 -33 -47 -118.5t-109.5 -160.5t-97.5 -75q-23 0 -59 28q0 10 -1 30t-1 30z" />
<glyph unicode="&#xb8;" horiz-adv-x="346" d="M-81.5 -479.5q0.5 27.5 27 46.5t62.5 13q29 -16 70 -16q33 0 48 17.5t15 37.5q0 37 -35.5 57t-87.5 25q-48 5 -41 59q3 20 34 59.5t79.5 94t71.5 86.5h143l-135 -182q76 -11 126 -67t50 -144q0 -85 -70.5 -150t-152.5 -65q-106 0 -182 76q-23 25 -22.5 52.5z" />
<glyph unicode="&#xbb;" horiz-adv-x="1675" d="M-82 233q0 36 30.5 76t74 73.5t107.5 71.5t113 62.5t111 54.5t82 41q-145 59 -180 70q-66 20 -115 81t-49 122q0 24 16.5 39.5t41.5 15.5q42 0 94 -10q80 -18 170 -40.5t200 -51t170 -43.5q59 -14 85 -60.5t24 -111.5q0 -101 -82 -136q-39 -16 -148.5 -70t-173.5 -75 q-89 -29 -197 -90t-196 -127q-47 -35 -84 -35q-27 0 -47 16t-29.5 40.5t-13.5 46t-4 40.5zM539 156q8 48 35.5 90.5t74.5 80t82.5 60t93.5 55.5q60 34 206.5 106.5t223.5 119.5q-26 9 -70.5 22t-73 22t-67.5 23t-64.5 27t-53.5 32.5t-44.5 40t-27 49t-10.5 60.5q1 27 4 41.5 t15.5 36t37.5 45.5q161 -69 647 -256q48 -19 67 -56.5t19 -95.5q0 -60 -8.5 -89.5t-42.5 -49.5q-130 -78 -395.5 -212t-388.5 -206q-4 -3 -18.5 -12t-20 -12t-19 -10.5t-21 -11t-20.5 -8.5t-22.5 -7t-22 -4t-24.5 -2q-15 0 -51 8q-17 49 -41 113z" />
<glyph unicode="&#xd3;" horiz-adv-x="1224" d="M41 434q0 211 125 445t295 387q42 38 70 53.5t57 15.5q37 0 117 -39q16 11 65.5 48t69.5 50t54 27.5t62 14.5q93 0 160.5 -105t67.5 -239q0 -52 -19.5 -107.5t-53 -124t-46.5 -102.5q-29 -77 -47.5 -121t-52 -106t-70.5 -109q-19 -24 -70 -89.5t-77.5 -97t-71 -81.5 t-89 -87t-93.5 -69q-30 -18 -74 -18q-91 0 -165 41t-119.5 107.5t-70 145.5t-24.5 160zM268 317q0 -19 4 -59q25 -14 56 -14q39 0 91.5 32t105 84.5t84 88t61.5 71.5q-91 71 -117.5 104.5t-69.5 131.5q-2 4 -6 6.5t-11 6.5t-11 7q-48 -74 -71 -112.5t-55.5 -103 t-46.5 -123.5t-14 -120zM694 696q0 -47 54 -67q64 67 133 200t98 246q-3 1 -6 1.5t-5 1t-3 1t-2 0.5q-15 0 -33 -12q-87 -66 -161.5 -174t-74.5 -197zM799 1636q0 39 45 123t108 155t105 71q26 0 41.5 -22t15.5 -60q0 -33 -47 -119t-109.5 -161t-97.5 -75q-22 0 -59 29 q0 10 -1 29.5t-1 29.5z" />
<glyph unicode="&#xf3;" horiz-adv-x="1071" d="M41 344q0 278 150 512t432 438q56 41 116 41q14 0 32 -3t32 -6.5t38 -11t35 -11.5t38 -14.5t34 -12.5q74 -104 74 -242q0 -159 -50 -332t-141 -315q-16 -25 -35.5 -51t-47 -59.5t-39.5 -49.5q-4 -4 -17.5 -14.5t-15.5 -17.5q-30 -77 -138.5 -132t-189.5 -55 q-75 0 -135.5 32.5t-97 83t-55.5 108t-19 112.5zM250 358q0 -89 35 -157q70 18 132 51t109 71.5t88.5 93.5t70 102.5t54.5 113.5t40.5 111t30 110.5t21.5 97t15 84.5q4 24 4 37q0 57 -57 82q-23 -5 -25 -6q-126 -75 -193 -180.5t-94 -241.5q0 -2 -1 -5t-1 -5 q0 -18 6.5 -44.5t16 -58.5t12.5 -47q-55 -28 -82 -28q-12 0 -26.5 8t-24 15t-30 25.5t-27.5 24.5q-74 -115 -74 -254zM715 1569q0 39 45 122.5t108 154.5t105 71q26 0 41.5 -22t15.5 -60q0 -33 -47 -118.5t-109.5 -160.5t-97.5 -75q-23 0 -59 28q0 10 -1 30t-1 30z" />
<glyph unicode="&#x104;" horiz-adv-x="923" d="M-61 426q0 22 11.5 38t27 25t42 15.5t46.5 9t51 5.5t45 5q41 82 139 269t148 288q8 16 30 50t34 62t11 58v13q68 68 142 192q21 34 39 51t43 17q44 0 79 -45t35 -90q0 -35 -4 -121q-44 -24 -62.5 -65t-21.5 -101q-4 -91 -18 -265t-19 -255q5 -5 22 -7.5t31 -6t25.5 -25.5 t11.5 -64q0 -22 -11 -39.5t-26.5 -30t-31 -26.5t-26.5 -36.5t-11 -51.5q0 -48 7 -147.5t7 -147.5h2l-10 -4q-12 -8 -18 -10q-101 -59 -161.5 -120t-60.5 -132q0 -20 15.5 -38t48.5 -18q39 0 70 17q27 4 52.5 -9.5t39.5 -35t14 -46.5t-18 -42q-76 -76 -183 -76 q-82 0 -152.5 65t-70.5 150q0 58 29.5 109t69 83.5t90 59t82 38t55.5 17.5q-33 36 -56.5 116t-34 141t-14.5 61q-38 0 -95.5 -19t-80.5 -20q-48 -55 -85.5 -126t-73.5 -152t-66 -130h-72q-43 64 -43 146q0 39 9.5 83t25.5 98.5t23 84.5q-7 5 -32.5 22.5t-36.5 26.5t-27.5 25 t-23.5 30.5t-7 30.5zM444 569q5 0 13 1t28 4t35.5 7.5t28 14t12.5 20.5q0 2 -3 18.5t-3 31.5q0 36 6.5 93t13.5 97l7 39l-115 -250z" />
<glyph unicode="&#x105;" horiz-adv-x="1118" d="M0 291q0 84 41.5 162t105.5 137.5t154 114.5t172.5 91.5t175.5 69.5q25 9 73.5 19t68.5 16q32 62 44.5 104.5t12.5 92.5q0 17 -4 71q-214 -44 -428 -276q-29 -32 -58 -29q-27 0 -46 22.5t-19 51.5q0 43 38 94.5t100 101t120.5 88.5t120.5 74q68 39 141 39q87 0 166 -59 q57 -102 57 -232v-145q0 -88 -18 -173t-59.5 -213.5t-51.5 -164.5q-19 -67 -51 -192.5t-41 -161.5q-121 -47 -174 -94.5t-53 -116.5q0 -20 15 -37.5t48 -17.5q41 0 70 16q27 4 52.5 -9.5t39.5 -35t14 -46.5t-18 -42q-76 -76 -182 -76q-82 0 -153 65t-71 150q0 51 22.5 96.5 t54 76t75.5 57.5t76.5 41.5t66.5 25.5q-32 63 -32 127q0 4 1 13.5t1 13.5q0 48 -23 80q-153 -107 -201 -146q-49 -39 -119.5 -60.5t-136.5 -21.5q-49 0 -94 41.5t-69.5 96.5t-24.5 100zM203 287q0 -21 8 -37q26 6 56.5 21.5t50.5 29.5t55 39l49 35q16 11 62 40.5t74.5 49.5 t63.5 47.5t52.5 51.5t17.5 44v13q-98 -18 -211.5 -72t-195.5 -127.5t-82 -134.5z" />
<glyph unicode="&#x106;" horiz-adv-x="878" d="M41 381q0 266 122 532.5t320 464.5q9 9 18.5 21t22 29t21.5 28q13 0 35.5 1t33.5 1q75 0 117 -26q70 -110 97.5 -187.5t27.5 -204.5q0 -94 -15.5 -152.5t-64.5 -111.5q-48 -51 -86 -51q-52 0 -84.5 40t-32.5 73q0 28 22 96t26 88q4 16 6 35t4 47.5t4 48.5 q-12 -11 -26.5 -22.5t-23 -19t-12.5 -15.5q-25 -42 -80 -140t-87 -149q-31 -50 -55 -115t-35.5 -113.5t-27 -126t-24.5 -114.5q-10 -45 -10 -78q0 -40 15.5 -78.5t45.5 -38.5q11 0 30 19t45 55.5t45 64.5t47 72.5t34 53.5q8 12 23 44.5t29 51t32 18.5q29 0 48.5 -61 t19.5 -111q0 -91 -51 -178.5t-133 -142t-167 -54.5q-62 0 -111 27t-79 69t-50 97.5t-28 108t-8 104.5zM645 1628q0 39 45 122.5t108 154.5t105 71q26 0 42 -22t16 -60q0 -33 -47 -118.5t-109.5 -160.5t-97.5 -75q-23 0 -60 29q0 10 -1 29.5t-1 29.5z" />
<glyph unicode="&#x107;" d="M41 391q0 164 81 344t201.5 318.5t247.5 210.5q62 32 93 32q23 0 48 -16t42.5 -34t62.5 -68q4 -2 8 -2q9 0 31 24.5t47 24.5q41 0 71 -58t30 -123q0 -49 -22.5 -101t-51.5 -90t-65.5 -90t-55.5 -93q-18 -36 -35.5 -50t-64.5 -34q-82 89 -82 182q0 30 -8.5 59.5t-25.5 70 t-24 63.5q-49 -40 -68 -55.5t-50 -47t-50 -59.5q-114 -167 -182 -430q-2 -8 -2 -29t1 -31.5t6 -21.5t16 -15t30 -4q39 0 106 40.5t132 81t98 40.5q13 0 21 -2q4 -12 30.5 -70.5t26.5 -83.5q0 -38 -20.5 -74t-49.5 -61.5t-74 -52t-79.5 -42t-81.5 -34.5q-19 -8 -47 -8 q-22 0 -65.5 2t-67.5 2q-73 70 -115.5 180.5t-42.5 204.5zM711 1561q0 39 45 122.5t108 154.5t105 71q26 0 41.5 -22t15.5 -60q0 -33 -47 -118.5t-109.5 -160.5t-97.5 -75q-23 0 -59 28q0 10 -1 30t-1 30z" />
<glyph unicode="&#x118;" horiz-adv-x="1019" d="M-82 84q0 10 2.5 18.5t9 16t12 13.5t16.5 11.5l18 9t20.5 7.5t20.5 6.5t21 6.5t19 5q16 71 42 199.5t34 167.5q-1 3 -12.5 24t-19 39.5t-7.5 32.5q0 17 13 39t32 22q55 16 82 54.5t45 101.5q7 28 18 59.5t25.5 70.5t22.5 63q-88 26 -130 55.5t-42 89.5q0 10 5.5 20 t16 19.5t22.5 18t30 17.5t33.5 16t36.5 16t36 14.5t36 13.5t32 12q53 21 65.5 32t40.5 65q22 0 69 1.5t81 2.5t82.5 -1.5t83.5 -9t73 -21.5t62 -37t39.5 -58t15.5 -82q0 -49 -105 -49q-9 0 -26.5 2t-26.5 2q-76 0 -137 -30t-99 -82t-60.5 -114.5t-28.5 -134.5q22 -2 96 -2.5 t122 -9t93 -33.5v-88q-86 -77 -186 -90q-68 -11 -155 -41t-101 -57q-76 -144 -109 -254q29 4 86 12t87.5 12t75 7.5t81.5 3.5q48 -2 98.5 -7.5t114 -17t103.5 -34.5t40 -54q0 -36 -25.5 -62t-75 -40t-95 -21t-113.5 -12q-50 -29 -87.5 -54t-75.5 -57.5t-58.5 -67.5 t-20.5 -69q0 -19 15.5 -37t48.5 -18q40 0 69 16q27 4 52.5 -9.5t39.5 -35t14 -46.5t-18 -42q-76 -76 -182 -76q-82 0 -152.5 65t-70.5 150q0 156 196 256q-28 -5 -86.5 -18t-93.5 -19.5t-85.5 -12.5t-94.5 -5q-71 0 -118.5 28.5t-47.5 94.5z" />
<glyph unicode="&#x119;" horiz-adv-x="952" d="M-41 420q0 23 16 62t19 50q26 11 35 13q27 3 45 7t31 10.5t20 12t12.5 17.5t8 21t7.5 28.5t9 34.5q27 93 62.5 178t84.5 170t114.5 155.5t141.5 116.5q27 15 56 15q28 0 71 -19q109 -49 164 -150t55 -227q0 -199 -184 -346q-12 -10 -45.5 -41.5t-59 -48.5t-57.5 -26 q-37 -11 -107 -36t-85 -30q-15 -23 -15 -61v-45q14 -2 43 -2q70 0 137.5 31t152 90t122.5 79q14 -7 21.5 -16.5t8.5 -16t1 -18.5q-4 -83 -70 -167t-160 -155h7l-25 -14q-50 -35 -88 -53l-19 -10q-165 -103 -165 -201q0 -20 15 -37.5t48 -17.5q41 0 70 16q27 4 52.5 -9.5 t39.5 -35t14 -46.5t-18 -42q-76 -76 -183 -76q-82 0 -152.5 65t-70.5 150q0 145 174 244q-68 38 -118.5 116t-59.5 158q-7 3 -60 17.5t-84.5 35.5t-31.5 54zM500 741q18 20 60.5 63t65 68.5t47 71.5t32.5 96q-75 -41 -140 -127t-65 -151v-21z" />
<glyph unicode="&#x141;" horiz-adv-x="913" d="M41 668q0 35 47 86.5t100.5 91t112.5 76.5q96 58 131 174q19 66 75 201.5t75 209.5q0 18 30.5 46t53.5 28q36 0 59 -34.5t23 -78.5q0 -89 -23 -221q24 9 61.5 23.5t53.5 21.5q42 -26 57.5 -44.5t15.5 -47.5q0 -33 -22 -119l-256 -176q-26 -18 -41.5 -30.5t-31 -34 t-23.5 -47.5q-21 -68 -85 -241.5t-89 -270.5q50 -5 51 -5q40 0 124.5 15.5t123.5 15.5q48 0 98.5 -27.5t50.5 -62.5q0 -15 -13.5 -43t-13.5 -43q0 -14 9 -29q-14 2 -41 2q-51 0 -103 -16t-114 -43.5t-95 -38.5q-22 -7 -69.5 -25t-85 -30t-60.5 -12q-17 0 -33 9.5t-33 30 t-27.5 35.5t-29 44.5t-24.5 39.5q10 29 30 88t35 105t27 88q10 36 45 132t49 153q-80 -2 -168 -37q-12 -6 -24 -6q-15 0 -24 12.5t-9 34.5z" />
<glyph unicode="&#x142;" horiz-adv-x="811" d="M41 578q6 26 23 50.5t31 37t44 36.5q138 110 228 302q20 42 61 107.5t71.5 124.5t43.5 116q8 34 39 74t57 40q44 0 75 -42.5t31 -86.5q0 -19 -10 -194h10q27 0 73 32.5t75 32.5q33 0 57.5 -32.5t24.5 -67.5q0 -49 -22.5 -92t-63.5 -64q-32 -16 -103 -60.5t-112 -62.5 q-38 -17 -73 -43.5t-61 -52t-55 -68t-45.5 -69.5t-42 -80t-35.5 -75.5t-34 -78.5q-83 -189 -88 -315q-1 -8 -5 -17.5t-10.5 -20.5t-9.5 -17q-80 26 -110.5 89.5t-30.5 158.5q0 50 26.5 140.5t26.5 139.5q-6 1 -18.5 4t-18.5 5t-16 6t-15 9t-10.5 14t-7.5 20z" />
<glyph unicode="&#x143;" horiz-adv-x="1058" d="M41 178q0 104 29.5 223.5t85.5 282t75 229.5q7 25 7 48q0 31 -11.5 92t-11.5 94q0 34 10 63q10 0 29.5 -0.5t30 -0.5t24 1t22.5 5.5t15 11.5q38 45 50 52q10 6 20 5q29 0 75 -49t46 -98q0 -43 -39 -155.5t-39 -141.5q0 -30 7.5 -70t19 -90t16.5 -78q28 4 52.5 41.5 t37.5 71.5q26 76 71 152t117.5 176t96.5 137q9 23 16 28q32 20 76.5 62t89.5 75t96 48q3 -2 25.5 -12t32.5 -20t10 -26v-4q-79 -206 -170 -319q-167 -208 -314 -486q-18 -28 -20 -39q-4 -42 -36.5 -109.5t-39.5 -96.5q-4 -13 -28 -92t-33 -123q-17 -70 -82 -70h-13 q-94 68 -94 186q0 16 3 48.5t3 45.5q0 37 -12 68.5t-45 87.5q-39 -45 -60.5 -104.5t-38 -146t-24.5 -115.5q-5 -16 -20.5 -43t-18.5 -33q-85 30 -112 68.5t-27 119.5zM684 1556q0 39 45 123t108 155t105 71q26 0 41.5 -22t15.5 -60q0 -33 -47 -119t-109.5 -161t-97.5 -75 q-22 0 -59 29q0 10 -1 29.5t-1 29.5z" />
<glyph unicode="&#x144;" horiz-adv-x="1114" d="M41 297q0 39 6 80q33 201 68 347t94 280q16 36 45.5 85.5t72 107.5t94 97t97.5 39q32 0 57 -19.5t25 -45.5q0 -32 -34 -89t-34 -81v-29q52 12 58 16q18 10 63 36t68 39t60.5 32.5t72 35t72.5 29.5q20 5 26 5q39 0 73 -39t51.5 -88.5t17.5 -90.5q0 -50 -19 -92 q-164 -379 -227 -544q-68 -174 -72 -279q-3 -55 -22 -91t-45 -36q-46 0 -82 42t-53 96.5t-17 105.5q0 28 3 57t10 64t12 58.5t18 65.5t18 58.5t20.5 64t18.5 56.5q9 30 25 64t37.5 74.5t30.5 59.5l-15 15q-53 -26 -108.5 -64t-127.5 -93.5t-102 -76.5q-57 -40 -63 -112 q-4 -51 -27.5 -196.5t-23.5 -225.5v-21q0 -35 -17 -57.5t-45 -22.5q-8 0 -20 4q-81 33 -120.5 111t-39.5 168zM741 1534q0 39 45 122.5t108 154.5t105 71q26 0 42 -22t16 -60q0 -33 -47 -118.5t-109.5 -160.5t-97.5 -75q-23 0 -60 29q0 10 -1 29.5t-1 29.5z" />
<glyph unicode="&#x15a;" horiz-adv-x="823" d="M-41 250q0 74 37 191.5t72 117.5q51 0 101 -69.5t50 -114.5q0 -7 -4 -22t-4 -23q0 -2 1 -12.5t1 -18.5q45 54 59.5 116t14.5 142q0 46 -8.5 139.5t-8.5 139.5q0 148 39 284q27 92 89.5 157.5t156.5 117.5q57 32 84 32q64 0 121 -65.5t87 -152.5t30 -162q0 -92 -34 -155 t-104 -63q-56 0 -91.5 47t-35.5 103q0 25 6 63q-3 0 -8 1t-8 1q-48 0 -77 -87t-29 -166q10 -375 10 -447q0 -91 -16.5 -165.5t-59.5 -127.5t-108 -53q-14 0 -28.5 3t-24.5 6.5t-31 11l-35 12.5q-1 -1 -11.5 -15t-15 -19t-16 -11t-23.5 -6q-47 0 -83.5 28t-56 71t-29 87 t-9.5 84zM651 1597q0 39 45 123t108 155t105 71q26 0 42 -22t16 -60q0 -33 -47 -119t-109.5 -161t-97.5 -75q-23 0 -60 29q0 10 -1 29.5t-1 29.5z" />
<glyph unicode="&#x15b;" d="M-41 182q0 73 29 176t76 183t90 80q25 -1 44.5 -13t31.5 -26.5t23 -42t16.5 -47t14 -54.5t13.5 -51q2 -2 8 -2q22 0 41 35.5t19 68.5q0 72 -37 208.5t-37 193.5q0 162 115 350q36 26 59.5 41t59 30t69.5 19q7 1 31.5 2.5t35.5 3t30 6t34 11.5q16 8 39 8q53 0 111.5 -51 t64.5 -115q2 -23 13.5 -75.5t11.5 -80.5q0 -40 -20 -107t-50 -132.5t-72 -113.5t-80 -48q-14 0 -28.5 7t-32 24.5t-27.5 29t-31.5 38t-27.5 34.5q30 118 45 162q6 18 31 64t28 75q-20 17 -36 17q-17 0 -27 -13q-115 -138 -115 -276q0 -55 34 -184.5t34 -198.5 q0 -48 -3.5 -85.5t-16.5 -83.5t-35.5 -75.5t-65 -50.5t-100.5 -21q-62 0 -136 33q-12 -32 -36.5 -94t-36.5 -94q-79 7 -140 87t-61 148zM670 1575q0 39 45 122.5t108 154.5t105 71q26 0 41.5 -22t15.5 -60q0 -33 -47 -118.5t-109.5 -160.5t-97.5 -75q-22 0 -59 29 q0 10 -1 29.5t-1 29.5z" />
<glyph unicode="&#x179;" horiz-adv-x="983" d="M-41 80q0 44 33 70q14 11 21.5 23t15 33t10.5 27q16 37 35 73t48 77.5t47 68t58 75t53.5 65.5t61 72.5t55.5 64.5q44 52 167 191.5t186 218.5q-20 10 -25 10q-63 -11 -103 -20.5t-91.5 -29t-90 -52t-67.5 -78.5q-13 -20 -19.5 -29.5t-21 -21.5t-31.5 -17q-42 10 -64 47 t-22 82q0 28 9.5 57.5t19.5 50t35.5 51.5t35.5 42.5t43 44.5l37 37q25 25 128.5 40t197.5 15q43 0 126 -12.5t118 -14.5q49 -4 74.5 -50t25.5 -99q0 -69 -55 -121q-10 -9 -68.5 -79.5t-103.5 -94.5q-29 -49 -101.5 -122.5t-93.5 -100.5q-24 -31 -145.5 -172t-171.5 -226 q10 -20 30 -20q26 0 79 7t79 7q365 0 365 -166q0 -22 -23 -77q-16 2 -49 2h-64q-27 0 -80 12t-77 12q-40 0 -86 -24q-18 -9 -40 -15.5t-37 -9t-42 -5.5t-39 -5q-27 -4 -80 -14.5t-95.5 -16.5t-78.5 -6q-53 0 -91 30t-38 93zM655 1565q0 39 45 122.5t108 154.5t105 71 q26 0 42 -22t16 -60q0 -33 -47 -118.5t-109.5 -160.5t-97.5 -75q-24 0 -60 28q0 10 -1 30t-1 30z" />
<glyph unicode="&#x17a;" horiz-adv-x="1034" d="M-20 186q0 36 13 75t41.5 84.5t48.5 73t58 77.5q98 126 158 200t153.5 176.5t182.5 184.5q58 51 90 104q-26 13 -57 13q-36 0 -108.5 -9.5t-108.5 -9.5q-15 0 -42 1t-42 1q-23 -37 -66 -101.5t-61 -92.5q-15 17 -22.5 33.5t-9 23.5t-0.5 29.5t1 27.5q0 70 20 111 q8 18 13.5 77.5t7.5 71.5q56 35 129 35q95 0 288 -3t312 -3q3 -4 12 -17t12.5 -18t11.5 -17t11 -19t9 -18.5t8.5 -20.5t6 -21t4.5 -24t1 -25q0 -85 -45 -125q-27 -25 -88.5 -92t-100.5 -99q-128 -103 -249 -243.5t-214 -286.5q20 -16 21 -16h22q188 0 408 -134 q39 -23 39 -53q0 -38 -41.5 -70t-79.5 -32q-30 0 -95.5 12t-99.5 12q-169 0 -227 -41t-164 -41q-70 0 -115.5 60t-45.5 149zM621 1587q0 39 45 122.5t108 154.5t105 71q26 0 41.5 -22t15.5 -60q0 -33 -47 -118.5t-109.5 -160.5t-97.5 -75q-22 0 -59 29q0 10 -1 29.5t-1 29.5 z" />
<glyph unicode="&#x17b;" horiz-adv-x="983" d="M-41 80q0 44 33 70q14 11 21.5 23t15 33t10.5 27q16 37 35 73t48 77.5t47 68t58 75t53.5 65.5t61 72.5t55.5 64.5q44 52 167 191.5t186 218.5q-20 10 -25 10q-63 -11 -103 -20.5t-91.5 -29t-90 -52t-67.5 -78.5q-13 -20 -19.5 -29.5t-21 -21.5t-31.5 -17q-42 10 -64 47 t-22 82q0 28 9.5 57.5t19.5 50t35.5 51.5t35.5 42.5t43 44.5l37 37q25 25 128.5 40t197.5 15q43 0 126 -12.5t118 -14.5q49 -4 74.5 -50t25.5 -99q0 -69 -55 -121q-10 -9 -68.5 -79.5t-103.5 -94.5q-29 -49 -101.5 -122.5t-93.5 -100.5q-24 -31 -145.5 -172t-171.5 -226 q10 -20 30 -20q26 0 79 7t79 7q365 0 365 -166q0 -22 -23 -77q-16 2 -49 2h-64q-27 0 -80 12t-77 12q-40 0 -86 -24q-18 -9 -40 -15.5t-37 -9t-42 -5.5t-39 -5q-27 -4 -80 -14.5t-95.5 -16.5t-78.5 -6q-53 0 -91 30t-38 93zM571 1681q1 8 3.5 31.5t4.5 34.5t9.5 27.5 t19.5 27.5q29 27 49.5 42.5t52 29.5t62.5 14q68 0 108 -59.5t40 -126.5q0 -61 -36.5 -110.5t-117.5 -96.5q-20 -10 -41 -10q-46 0 -98.5 67t-55.5 129z" />
<glyph unicode="&#x17c;" horiz-adv-x="1034" d="M-20 186q0 36 13 75t41.5 84.5t48.5 73t58 77.5q98 126 158 200t153.5 176.5t182.5 184.5q58 51 90 104q-26 13 -57 13q-36 0 -108.5 -9.5t-108.5 -9.5q-15 0 -42 1t-42 1q-23 -37 -66 -101.5t-61 -92.5q-15 17 -22.5 33.5t-9 23.5t-0.5 29.5t1 27.5q0 70 20 111 q8 18 13.5 77.5t7.5 71.5q56 35 129 35q95 0 288 -3t312 -3q3 -4 12 -17t12.5 -18t11.5 -17t11 -19t9 -18.5t8.5 -20.5t6 -21t4.5 -24t1 -25q0 -85 -45 -125q-27 -25 -88.5 -92t-100.5 -99q-128 -103 -249 -243.5t-214 -286.5q20 -16 21 -16h22q188 0 408 -134 q39 -23 39 -53q0 -38 -41.5 -70t-79.5 -32q-30 0 -95.5 12t-99.5 12q-169 0 -227 -41t-164 -41q-70 0 -115.5 60t-45.5 149zM553 1714q1 8 3.5 31.5t4.5 34.5t9.5 27.5t19.5 27.5q29 27 49.5 42.5t52 29.5t62.5 14q68 0 107.5 -59.5t39.5 -126.5q0 -61 -36 -110.5 t-117 -96.5q-20 -10 -41 -10q-46 0 -98.5 67t-55.5 129z" />
<glyph unicode="&#x192;" horiz-adv-x="976" d="M-164 -635q149 74 221 273q28 77 76.5 225t56.5 170q53 157 60 180q3 12 12 34.5t14.5 42.5t4.5 40q0 16 -2 26q-51 -7 -112 -37t-83 -30q-31 0 -70 44.5t-39 88.5q0 60 80 110q229 132 279 158q82 45 98 123q20 92 38.5 165.5t49 174t67 182t83.5 162.5t108 143t131 99 q31 16 66 16q66 0 116 -80t50 -166q0 -106 -36.5 -210t-107.5 -154q-30 14 -47.5 40t-32 57t-30.5 48q-7 -13 -27.5 -41t-30 -49.5t-10.5 -46.5q-28 -21 -47 -60t-25.5 -67.5t-15 -90.5t-12.5 -81q13 -11 42.5 -15t59 -7.5t58.5 -13t47 -38.5t18 -78q0 -39 -47 -59 q-19 -9 -65 -34t-80 -38t-70 -16q-74 -6 -84 -86q-2 -18 -8 -39t-10.5 -34t-14.5 -38t-14 -34q-18 -45 -59 -174t-74 -195q-50 -95 -47 -182v-21q-32 -27 -53 -62.5t-41.5 -91.5t-28.5 -73q-9 -18 -32.5 -74t-42 -92t-45.5 -80t-58 -67t-64 -23q-9 0 -22 3.5t-30 11t-30 14 l-34 17l-31 15.5q-3 20 -11.5 61t-11.5 54z" />
<glyph unicode="&#x218;" horiz-adv-x="835" d="M-61 -623q0 17 21.5 37.5t49.5 39t60.5 51t50.5 67.5q-3 0 -10 -1t-9 -1q-52 0 -77 22t-25 72q0 64 58 115t108 51q65 0 113.5 -43.5t48.5 -126.5q0 -72 -38.5 -151.5t-106 -136t-138.5 -56.5q-36 0 -71 17.5t-35 43.5zM-41 250q0 74 37 191.5t72 117.5q51 0 101 -69.5 t50 -114.5q0 -7 -4 -22t-4 -23q0 -2 1 -12.5t1 -18.5q45 54 59.5 116t14.5 142q0 46 -8.5 139.5t-8.5 139.5q0 148 39 284q27 92 89.5 157.5t156.5 117.5q57 32 84 32q64 0 121 -65.5t87 -152.5t30 -162q0 -92 -34 -155t-104 -63q-56 0 -91.5 47t-35.5 103q0 25 6 63 q-3 0 -8 1t-8 1q-48 0 -77 -87t-29 -166q10 -375 10 -447q0 -91 -16.5 -165.5t-59.5 -127.5t-108 -53q-14 0 -28.5 3t-24.5 6.5t-31 11l-35 12.5q-1 -1 -11.5 -15t-15 -19t-16 -11t-23.5 -6q-47 0 -83.5 28t-56 71t-29 87t-9.5 84z" />
<glyph unicode="&#x219;" d="M-41 182q0 73 29 176t76 183t90 80q25 -1 44.5 -13t31.5 -26.5t23 -42t16.5 -47t14 -54.5t13.5 -51q2 -2 8 -2q22 0 41 35.5t19 68.5q0 72 -37 208.5t-37 193.5q0 162 115 350q36 26 59.5 41t59 30t69.5 19q7 1 31.5 2.5t35.5 3t30 6t34 11.5q16 8 39 8q53 0 111.5 -51 t64.5 -115q2 -23 13.5 -75.5t11.5 -80.5q0 -40 -20 -107t-50 -132.5t-72 -113.5t-80 -48q-14 0 -28.5 7t-32 24.5t-27.5 29t-31.5 38t-27.5 34.5q30 118 45 162q6 18 31 64t28 75q-20 17 -36 17q-17 0 -27 -13q-115 -138 -115 -276q0 -55 34 -184.5t34 -198.5 q0 -48 -3.5 -85.5t-16.5 -83.5t-35.5 -75.5t-65 -50.5t-100.5 -21q-62 0 -136 33q-12 -32 -36.5 -94t-36.5 -94q-79 7 -140 87t-61 148zM-41 -623q0 17 21.5 37.5t49.5 39t60.5 51t50.5 67.5q-3 0 -9.5 -1t-8.5 -1q-52 0 -77.5 22t-25.5 72q0 64 58 115t108 51 q65 0 113.5 -43.5t48.5 -126.5q0 -72 -38.5 -151.5t-105.5 -136t-138 -56.5q-36 0 -71.5 17.5t-35.5 43.5z" />
<glyph unicode="&#x2c6;" horiz-adv-x="788" d="M164 1169q0 23 15.5 46.5t47 47t63 43.5t81.5 43.5t82.5 38t86.5 37t74 31.5q23 10 43 10q40 0 79.5 -46.5t39.5 -90.5q0 -34 6 -102.5t6 -102.5q0 -31 -1 -47.5t-7 -42.5t-21 -38.5t-40 -12.5q-18 0 -33 6.5t-26 19.5t-19.5 27t-15 35t-10.5 37t-7 39.5t-4.5 36t-3.5 33 t-2 24.5q-142 -60 -205 -108q-4 -3 -26.5 -20.5t-32 -23t-27.5 -13t-35 -7.5q-38 0 -73 29t-35 71z" />
<glyph unicode="&#x2da;" horiz-adv-x="598" d="M164 1167q0 53 42 119.5t104.5 113t115.5 46.5q69 0 120.5 -65t51.5 -150q-4 -11 -11 -36t-14.5 -42t-17.5 -29q-49 -58 -112.5 -100.5t-120.5 -42.5q-68 0 -113 55t-45 131zM305 1178q0 -12 9.5 -20.5t23.5 -8.5q63 0 127 94q-4 19 -14.5 30t-22.5 11q-31 0 -77 -37 t-46 -69z" />
<glyph unicode="&#x2dc;" horiz-adv-x="796" d="M164 1202q0 59 66.5 117.5t131.5 58.5q39 0 99 -35.5t71 -35.5q16 0 41.5 16t44 32.5t52 48t45.5 42.5q12 8 24 8q29 0 43.5 -41t14.5 -82q0 -58 -47 -110t-136 -105q-34 -22 -63 -22q-27 0 -85 46t-77 46q-24 0 -54 -18t-114 -78q-57 63 -57 112z" />
<glyph unicode="&#x2000;" horiz-adv-x="1057" />
<glyph unicode="&#x2001;" horiz-adv-x="2114" />
<glyph unicode="&#x2002;" horiz-adv-x="1057" />
<glyph unicode="&#x2003;" horiz-adv-x="2114" />
<glyph unicode="&#x2004;" horiz-adv-x="704" />
<glyph unicode="&#x2005;" horiz-adv-x="528" />
<glyph unicode="&#x2006;" horiz-adv-x="352" />
<glyph unicode="&#x2007;" horiz-adv-x="352" />
<glyph unicode="&#x2008;" horiz-adv-x="264" />
<glyph unicode="&#x2009;" horiz-adv-x="422" />
<glyph unicode="&#x200a;" horiz-adv-x="117" />
<glyph unicode="&#x2010;" horiz-adv-x="845" d="M0 586q0 54 32.5 83t82.5 29q9 0 27.5 -1t27.5 -1h29h45q46 0 92 9q132 32 332 32q48 0 92.5 -25t44.5 -71q0 -25 -12.5 -43.5t-36.5 -28t-43 -14t-47 -8.5q-106 -13 -471 -55v2q-10 0 -32 -2.5t-34 -2.5q-22 0 -36 1t-33.5 6t-31 15t-20 29t-8.5 46z" />
<glyph unicode="&#x2011;" horiz-adv-x="845" d="M0 586q0 54 32.5 83t82.5 29q9 0 27.5 -1t27.5 -1h29h45q46 0 92 9q132 32 332 32q48 0 92.5 -25t44.5 -71q0 -25 -12.5 -43.5t-36.5 -28t-43 -14t-47 -8.5q-106 -13 -471 -55v2q-10 0 -32 -2.5t-34 -2.5q-22 0 -36 1t-33.5 6t-31 15t-20 29t-8.5 46z" />
<glyph unicode="&#x2012;" horiz-adv-x="845" d="M0 586q0 54 32.5 83t82.5 29q9 0 27.5 -1t27.5 -1h29h45q46 0 92 9q132 32 332 32q48 0 92.5 -25t44.5 -71q0 -25 -12.5 -43.5t-36.5 -28t-43 -14t-47 -8.5q-106 -13 -471 -55v2q-10 0 -32 -2.5t-34 -2.5q-22 0 -36 1t-33.5 6t-31 15t-20 29t-8.5 46z" />
<glyph unicode="&#x2013;" horiz-adv-x="911" d="M0 575q0 26 29 51.5t61 30.5q96 11 259 19t274 8q10 0 39 0.5t41 0t36.5 -2t38 -6.5t32.5 -13.5t33 -22t27 -32.5q-27 -35 -54 -48t-66 -13h-45q-220 0 -588 -33q-10 -2 -29 -2q-28 0 -58 17.5t-30 45.5z" />
<glyph unicode="&#x2014;" horiz-adv-x="1165" d="M0 604q0 26 15 44.5t43 28t59.5 15t75 6.5t77 0t77.5 -2.5t67 -1.5l600 23q46 0 78 -20.5t32 -69.5q0 -26 -15 -43t-42 -17q-12 0 -38 3t-40 3q-139 0 -423.5 -18t-426.5 -18q-43 0 -69.5 3.5t-48 19t-21.5 44.5z" />
<glyph unicode="&#x2018;" horiz-adv-x="499" d="M164 1102q0 53 41.5 132.5t99 139.5t96.5 60q31 0 51.5 -28.5t20.5 -62.5q0 -10 -2.5 -20t-5 -16.5t-10 -17t-11 -14.5t-15.5 -17t-15 -17q61 -74 75 -108q11 -25 11 -46q0 -116 -211 -172q-125 76 -125 187z" />
<glyph unicode="&#x2019;" horiz-adv-x="528" d="M164 1016q0 13 9 23t22 17.5t40.5 25.5t53.5 40q-33 37 -45 52t-23.5 39.5t-11.5 50.5q0 65 47 104t125 39h47q50 -45 75 -90t25 -113q0 -127 -84 -206.5t-227 -79.5q-53 74 -53 98z" />
<glyph unicode="&#x201a;" horiz-adv-x="446" d="M-41 -131q0 13 9 23t22 17.5t40.5 25.5t53.5 40q-33 37 -45 52t-23.5 39.5t-11.5 50.5q0 65 47 104t125 39h47q51 -46 76 -90.5t25 -112.5q0 -126 -84.5 -206t-227.5 -80q-53 74 -53 98z" />
<glyph unicode="&#x201c;" horiz-adv-x="917" d="M164 1102q0 52 42 129t105 136.5t113 59.5q26 0 44.5 -26t18.5 -53q0 -17 -9 -34t-19.5 -28t-30.5 -31t-29 -30q9 -8 27.5 -24.5t26 -23t20.5 -20t18.5 -21.5t12.5 -20.5t9.5 -24.5t2.5 -26q0 -61 -65 -102t-138 -41q-65 0 -107 51t-42 129zM582 1102q0 53 41.5 132.5 t99 139.5t96.5 60q31 0 51.5 -28.5t20.5 -62.5q0 -10 -2.5 -20t-5.5 -17t-10 -17t-11 -14.5t-15.5 -16.5t-15.5 -17q2 -2 11.5 -13.5t12 -15t11 -14.5t12 -16l10.5 -15t10 -16t8 -15.5t7 -16.5t3.5 -15.5t1.5 -16.5q0 -116 -211 -172q-125 76 -125 187z" />
<glyph unicode="&#x201d;" horiz-adv-x="894" d="M164 1016q0 13 9 23t22 17.5t40.5 25.5t53.5 40q-33 37 -45 52t-23.5 39.5t-11.5 50.5q0 65 47 104t125 39h47q50 -45 75 -90t25 -113q0 -127 -84 -206.5t-227 -79.5q-53 74 -53 98zM567 1034q27 43 84 90q-5 16 -18 46.5t-21 53t-8 38.5q0 52 61 114t95 62 q21 0 52.5 -34t57 -93.5t25.5 -118.5q0 -132 -125 -217q-15 -11 -34.5 -16.5t-31.5 -6.5t-40.5 -1.5t-38.5 -0.5q-46 66 -58 84z" />
<glyph unicode="&#x201e;" horiz-adv-x="813" d="M-41 -131q0 13 9 23t22 17.5t40.5 25.5t53.5 40q-33 37 -45 52t-23.5 39.5t-11.5 50.5q0 65 47 104t125 39h47q51 -46 76 -90.5t25 -112.5q0 -126 -84.5 -206t-227.5 -80q-53 74 -53 98zM362 -113q27 43 84 90q-5 16 -18 46.5t-21 53t-8 38.5q0 52 61 114t95 62 q21 0 52.5 -34t57 -93.5t25.5 -118.5q0 -132 -125 -217q-15 -11 -34.5 -16.5t-31.5 -6.5t-40.5 -1.5t-38.5 -0.5q-46 66 -58 84z" />
<glyph unicode="&#x2022;" horiz-adv-x="770" d="M164 664q0 103 73.5 180.5t174.5 77.5q83 0 138.5 -71t55.5 -153q0 -92 -70.5 -169.5t-164.5 -77.5q-43 0 -83.5 17t-103.5 56q-3 17 -8.5 47.5t-8.5 52t-3 40.5z" />
<glyph unicode="&#x2026;" horiz-adv-x="1087" d="M-41 102q0 66 47 115t111 49q53 0 88 -44t35 -97q0 -59 -45 -108.5t-105 -49.5q-45 0 -119 47q-1 9 -6.5 40.5t-5.5 47.5zM322 102q0 66 46.5 115t110.5 49q53 0 88 -44t35 -97q0 -59 -44.5 -108.5t-104.5 -49.5q-45 0 -119 47q-1 9 -6.5 40.5t-5.5 47.5zM684 102 q0 66 47 115t111 49q53 0 88 -44t35 -97q0 -59 -45 -108.5t-105 -49.5q-45 0 -119 47q-1 9 -6.5 40.5t-5.5 47.5z" />
<glyph unicode="&#x202f;" horiz-adv-x="422" />
<glyph unicode="&#x2039;" horiz-adv-x="559" d="M41 485q0 34 22 72.5t43.5 60.5t69 65t60.5 56q72 69 100 85q22 12 39 12q33 0 98 -50q4 -28 4 -41q0 -37 -14.5 -73t-46.5 -74t-57 -63t-73 -68t-67 -61q3 -13 14 -52.5t17 -64.5t12 -56t6 -49q0 -38 -18 -66t-43 -28q-41 0 -68 40t-38 90t-25 117.5t-27 100.5 q-8 21 -8 47z" />
<glyph unicode="&#x203a;" horiz-adv-x="477" d="M-82 182q0 37 14.5 73t47 74.5t57 63t73 68.5t66.5 61q-3 13 -14 52.5t-17 64t-12 55.5t-6 49q0 38 18 66.5t43 28.5q41 0 68 -40.5t38 -90t25 -117.5t27 -101q8 -21 8 -47q0 -28 -11.5 -55.5t-35.5 -55.5t-44 -48t-54 -50t-49 -45q-35 -33 -51.5 -48.5t-43.5 -32 t-45 -15.5q-34 0 -98 49q-4 28 -4 41z" />
<glyph unicode="&#x205f;" horiz-adv-x="528" />
<glyph unicode="&#x20ac;" horiz-adv-x="1179" d="M0 557q0 15 11 28t31.5 22.5t42.5 16.5t50 12t47 8t42 6t26 3q-1 22 -21 37.5t-43 24t-42 31t-19 57.5q0 85 271 111h4.5t3.5 0.5t4 0.5q64 97 102.5 152.5t100 130.5t122.5 133q21 19 69.5 77t88 86t88.5 28q53 0 94 -30t63 -77.5t33 -97.5t11 -98q0 -211 -211 -469 q-9 -11 -20.5 -20.5t-31 -23.5t-30.5 -22q-8 6 -24.5 18t-25 18.5t-19 15.5t-15 17t-4.5 15q0 48 16 101.5t33.5 88.5t49.5 92.5t44 82.5q1 2 3.5 6t4 6.5t3 6.5t1.5 7q0 8 -10 21q-38 -11 -101.5 -85t-110 -152t-46.5 -105q0 -6 1 -17t1 -16q0 -20 -9.5 -38t-18.5 -27.5 t-35.5 -31.5t-38.5 -32q19 -12 55.5 -31t59 -32t41 -33t18.5 -41t-13 -35.5t-38.5 -22t-44.5 -11.5t-50 -6t-36 -3q-12 -2 -40.5 -7.5t-43.5 -7.5q-29 -49 -29 -116v-15v-28.5t1.5 -24.5t5.5 -22t10.5 -16.5t17 -14t26 -7.5t35.5 -3q37 0 115 25.5t112 25.5q37 0 74 -37 q-95 -218 -354 -246q-15 8 -65.5 34t-82.5 44q-7 18 -22 54.5t-27 70t-20 63.5q-9 31 -15 62t-14 82t-10 65q-11 0 -34 1l-34.5 1.5t-32 2.5t-32.5 4.5t-29 8t-29 13.5t-24.5 19t-22.5 26q-14 17 -14 39z" />
<glyph unicode="&#x2122;" horiz-adv-x="1136" d="M164 1384q0 26 17 44t39 27t58.5 14t58.5 5.5t56 0.5q221 0 221 -82q0 -23 -22 -45q-38 -25 -84 -86.5t-80 -119t-71 -102.5t-62 -45q-28 0 -48 24.5t-20 53.5q0 14 4.5 26t13 26t11.5 22q40 92 49 113q-10 5 -41.5 18.5t-41.5 19.5t-28 19.5t-24 29.5t-6 37zM549 1057 q0 21 8 37q5 12 31.5 71.5t43 93t42 80t48 69t42.5 22.5q19 0 34.5 -8.5t28 -29t18.5 -34t18 -46.5l16 -44q36 19 100 80t86 61q29 0 50.5 -36.5t21.5 -78.5q0 -3 -1 -10t-1 -10q-36 -173 -146 -334q-7 -9 -24 -22q-61 23 -75 40.5t-36 96.5q-77 45 -100 59q-9 -14 -27 -54 t-38 -63t-54 -34q-4 3 -18.5 12t-19 12t-15 11t-14.5 13t-9.5 12.5t-7.5 16t-2 17.5z" />
<glyph unicode="&#x25fc;" horiz-adv-x="1392" d="M0 0v1393h1393v-1393h-1393z" />
</font>
</defs>
</svg>
